<?xml version="1.0" encoding="utf-8"?>
<!-- Generator: Adobe Illustrator 16.0.3, SVG Export Plug-In . SVG Version: 6.00 Build 0)  -->
<!DOCTYPE svg PUBLIC "-//W3C//DTD SVG 1.1//EN" "http://www.w3.org/Graphics/SVG/1.1/DTD/svg11.dtd">
<svg version="1.1" id="Ebene_1" xmlns="http://www.w3.org/2000/svg" xmlns:xlink="http://www.w3.org/1999/xlink" x="0px" y="0px"
	 width="1194.538px" height="176.24px" viewBox="0 0 1194.538 176.24" enable-background="new 0 0 1194.538 176.24"
	 xml:space="preserve">
<path fill-rule="evenodd" clip-rule="evenodd" fill="#47B39E" d="M71.182,171.052v-2.418l-15.119-8.813v-17.574
	c0.63-0.24,1.246-0.529,1.836-0.877c8.379-4.939,9.26-18.975,1.966-31.344c-7.294-12.369-20-18.393-28.377-13.453
	c-8.379,4.939-9.26,18.975-1.967,31.344c1.177,1.996,2.495,3.822,3.913,5.469v13.055l-18.059-10.336V71.377l-0.06-0.04L0,61.604
	V176.24h71.182V171.052z"/>
<path fill-rule="evenodd" clip-rule="evenodd" fill="#344E5C" d="M75.792,169.416l0.025,6.824H147.4V62.568l-15.365,8.519v21.542
	l-12.003,6.273c-0.436-0.074-3.101-2.566-3.7-2.902c-8.497-4.732-21.007,1.525-27.995,14.07c-6.99,12.543-6.393,26.887,2.103,31.621
	c8.497,4.732,21.151-0.945,28.141-13.49c1.127-2.023,2.632-6.721,3.335-8.775l10.226-5.91l-0.06,22.443l-56.29,32.875V169.416z"/>
<path fill-rule="evenodd" clip-rule="evenodd" fill="#DF5B49" d="M73.686,34.96l56.443,32.809l17.271-9.676V28.869H0v27.696
	l17.533,11.148l17.555-10.748l11.038,6.543c-0.217,1.813-0.224,3.81-0.217,4.495c0.102,9.728,13.272,17.121,27.632,16.972
	c14.359-0.148,24.585-8.847,24.515-17.407c-0.083-9.726-9.436-17.34-23.789-17.769c-4.86-0.145-9.544,0.826-11.676,1.234l-8.05-5.15
	L73.686,34.96z"/>
<g>
	<path fill="#344E5C" d="M157.551,176.24V28.869h95.938V56.16h-60.04v31.699h44.925v27.291h-44.925v61.09H157.551z"/>
	<path fill="#344E5C" d="M358.889,176.24l-8.188-24.771h-52.902l-8.188,24.771h-38.207l51.223-147.791h43.666l51.014,147.791
		H358.889z M306.827,124.177h34.848L324.25,71.695L306.827,124.177z"/>
	<path fill="#344E5C" d="M416.94,28.869h64.029c14.973,0,26.904,3.641,35.793,10.916c8.885,7.279,13.33,16.516,13.33,27.711
		c0,16.658-9.729,27.921-29.18,33.798c9.936,1.4,17.844,5.531,23.723,12.387c5.877,6.859,8.816,14.904,8.816,24.143
		c0,11.756-4.305,21.098-12.91,28.025c-8.607,6.928-20.609,10.391-36.004,10.391H416.94V28.869z M452.838,56.16v31.91h23.512
		c5.176,0,9.342-1.328,12.49-3.988c3.15-2.658,4.725-6.614,4.725-11.862s-1.574-9.237-4.725-11.966
		c-3.148-2.729-7.314-4.094-12.49-4.094H452.838z M452.838,148.949h27.08c4.898,0,8.955-1.469,12.176-4.408
		c3.219-2.939,4.83-6.996,4.83-12.176c0-5.176-1.543-9.307-4.619-12.387c-3.08-3.076-7.068-4.617-11.967-4.617h-27.5V148.949z"/>
	<path fill="#344E5C" d="M558.432,28.869h35.898v120.08h44.715v27.291h-80.613V28.869z"/>
	<path fill="#344E5C" d="M756.616,176.24l-8.188-24.771h-52.902l-8.188,24.771h-38.207l51.223-147.791h43.666l51.014,147.791
		H756.616z M704.553,124.177h34.848l-17.424-52.482L704.553,124.177z"/>
	<path fill-rule="evenodd" clip-rule="evenodd" fill="#DF5B4A" d="M926.018,57.417c-3.021-4.583-6.282-8.886-9.767-12.909
		c-1.694-1.955-3.44-3.846-5.238-5.67C882.546,9.94,841.366-2.506,795.42,0.416c27.071,4.746,50.501,13.513,70.288,26.303
		c21.759,14.064,39.113,32.991,52.065,56.781c0.302,0.553,0.601,1.109,0.896,1.668c45.847-23.816,95.681-24.4,149.5-1.752
		C1025.7,50.516,976.374,38.857,926.018,57.417z"/>
	<path fill-rule="evenodd" clip-rule="evenodd" fill="#344E5C" d="M868.194,88.068h-23.513V56.16h23.513
		c5.179,0,9.342,1.363,12.491,4.094c3.148,2.729,4.723,6.717,4.723,11.965c0,5.249-1.574,9.203-4.723,11.861
		C877.536,86.74,873.373,88.068,868.194,88.068L868.194,88.068z M860.655,31.117c-1.182-0.764-2.377-1.514-3.585-2.248h-0.938
		h-47.348V176.24h67.598c15.395,0,27.396-3.465,36.003-10.393s12.91-16.27,12.91-28.025c0-9.236-2.938-17.283-8.816-24.141
		c-5.878-6.859-13.786-10.986-23.723-12.387c8.945-2.703,15.834-6.545,20.665-11.525c0.066-0.068,0.131-0.137,0.196-0.203
		l-0.896-1.668C899.768,64.107,882.414,45.182,860.655,31.117L860.655,31.117z M844.681,115.359h27.501
		c4.898,0,8.888,1.541,11.967,4.619c3.078,3.08,4.618,7.207,4.618,12.387c0,5.178-1.609,9.236-4.828,12.176
		s-7.278,4.408-12.177,4.408h-27.081V115.359z"/>
</g>
<g>
	<path fill="#DF5B49" d="M936.05,119.242h5.494v49.924h19.703v4.238H936.05V119.242z"/>
	<path fill="#DF5B49" d="M999.239,130.544h5.495v42.859h-5.495v-6.986c-2.879,5.182-7.614,7.771-14.208,7.771
		c-4.763,0-8.74-1.557-11.932-4.67c-3.192-3.113-4.788-7.602-4.788-13.463v-25.512h5.416v24.492c0,4.709,1.139,8.295,3.415,10.754
		s5.389,3.689,9.341,3.689c3.95,0,7.064-1.23,9.341-3.689s3.415-6.045,3.415-10.754V130.544z M983.579,123.597
		c-0.76,0.76-1.662,1.139-2.708,1.139c-1.048,0-1.95-0.379-2.708-1.139c-0.76-0.758-1.139-1.66-1.139-2.707s0.379-1.949,1.139-2.709
		c0.758-0.758,1.66-1.139,2.708-1.139c1.046,0,1.948,0.381,2.708,1.139c0.758,0.76,1.138,1.662,1.138,2.709
		S984.336,122.839,983.579,123.597z M995.353,123.597c-0.759,0.76-1.662,1.139-2.708,1.139c-1.048,0-1.95-0.379-2.708-1.139
		c-0.76-0.758-1.139-1.66-1.139-2.707s0.379-1.949,1.139-2.709c0.758-0.758,1.66-1.139,2.708-1.139c1.046,0,1.949,0.381,2.708,1.139
		c0.758,0.76,1.139,1.662,1.139,2.709S996.111,122.839,995.353,123.597z"/>
	<path fill="#DF5B49" d="M1038.723,129.759c6.017,0,10.976,2.002,14.875,6.006c3.897,4.004,5.848,9.289,5.848,15.855
		c0,6.568-1.962,11.971-5.887,16.211c-3.925,4.238-8.871,6.357-14.836,6.357c-3.874,0-7.275-0.953-10.205-2.865
		c-2.932-1.91-5.103-4.355-6.516-7.34v9.42h-5.494v-58.088h5.494v24.57c1.413-2.982,3.584-5.416,6.516-7.301
		C1031.448,130.703,1034.849,129.759,1038.723,129.759z M1037.859,169.48c4.396,0,8.15-1.662,11.265-4.984
		c3.113-3.324,4.671-7.615,4.671-12.875c0-5.258-1.545-9.432-4.632-12.52c-3.088-3.088-6.843-4.631-11.264-4.631
		c-4.423,0-8.178,1.609-11.265,4.826c-3.089,3.219-4.632,7.445-4.632,12.678c0,5.234,1.543,9.459,4.632,12.678
		C1029.721,167.871,1033.463,169.48,1037.859,169.48z"/>
	<path fill="#DF5B49" d="M1086.371,174.189c-6.123,0-11.096-2.041-14.915-6.123c-3.82-4.082-5.73-9.459-5.73-16.131
		s1.949-12.035,5.849-16.092c3.897-4.055,8.948-6.084,15.149-6.084s11.134,1.912,14.797,5.73c3.662,3.82,5.495,8.557,5.495,14.209
		c0,1.518-0.105,2.932-0.314,4.238h-35.323c0.208,4.92,1.699,8.791,4.474,11.617c2.773,2.826,6.28,4.238,10.52,4.238
		c3.297,0,6.108-0.758,8.438-2.275c2.327-1.518,3.937-3.506,4.827-5.967h5.888c-1.413,3.664-3.717,6.688-6.908,9.066
		C1095.423,173,1091.341,174.189,1086.371,174.189z M1101.363,149.619c0-4.709-1.426-8.463-4.277-11.264
		c-2.854-2.799-6.386-4.199-10.598-4.199c-4.213,0-7.72,1.373-10.519,4.121c-2.8,2.748-4.331,6.529-4.592,11.342H1101.363z"/>
	<path fill="#DF5B49" d="M1118.946,168.066c-3.82-4.082-5.73-9.445-5.73-16.092c0-6.645,1.91-12.01,5.73-16.092
		c3.819-4.082,8.792-6.123,14.915-6.123c10.047,0,16.432,4.502,19.153,13.502h-5.888c-0.891-2.877-2.473-5.115-4.749-6.711
		s-5.116-2.395-8.517-2.395c-4.449,0-8.06,1.531-10.833,4.592c-2.774,3.063-4.16,7.457-4.16,13.188s1.386,10.141,4.16,13.227
		c2.773,3.088,6.384,4.631,10.833,4.631c3.4,0,6.24-0.797,8.517-2.393s3.858-3.834,4.749-6.713h5.888
		c-1.362,4.082-3.639,7.354-6.83,9.813c-3.192,2.461-7.3,3.689-12.323,3.689C1127.738,174.189,1122.765,172.148,1118.946,168.066z"
		/>
	<path fill="#DF5B49" d="M1168.555,173.404h-5.494v-58.088h5.494v34.383l17.27-19.154h7.929l-20.802,21.195l20.802,21.664h-7.536
		l-17.662-19.23V173.404z"/>
</g>
<g>
</g>
<g>
</g>
<g>
</g>
<g>
</g>
<g>
</g>
<g>
</g>
</svg>
