M48
;GenerationSoftware,Autodesk,EAGLE,9.7.0*%
;CreationDate,2020-09-22T12:19:29Z*%
FMAT,2
ICI,OFF
METRIC,TZ,000.000
T3C0.350
T2C0.813
T1C1.016
%
G90
M71
T1
X33520Y45840
X2286Y2286
X5624Y10180
X10610Y-5110
X15690Y-5110
X18230Y-5110
X33520Y12820
X20770Y-5110
X23310Y-5110
X25850Y-5110
X33520Y2286
X5842Y2286
X28390Y-5110
X33520Y43300
X33520Y40760
X33520Y38220
X33520Y35680
X33520Y33140
X33520Y30600
X33520Y28060
X33520Y25520
X33520Y22980
X33520Y20440
X33520Y17900
X33520Y15360
X13150Y-5110
X33520Y10280
X5624Y45740
X5624Y43200
X5624Y40660
X5624Y38120
X5624Y35580
X5624Y33040
X5624Y30500
X5624Y27960
X5624Y25420
X5624Y22880
X5624Y20340
X5624Y17800
X5624Y15260
X5624Y12720
T2
X28420Y8878
X25880Y8878
X23340Y8878
X20800Y8878
X15720Y8878
X13180Y8878
X10640Y8878
X18260Y8878
T3
X5802Y2453
M30