G04 EAGLE Gerber RS-274X export*
G75*
%MOMM*%
%FSLAX34Y34*%
%LPD*%
%INSilkscreen Top*%
%IPPOS*%
%AMOC8*
5,1,8,0,0,1.08239X$1,22.5*%
G01*
%ADD10C,0.152400*%
%ADD11C,0.050800*%
%ADD12C,0.762000*%
%ADD13R,0.762000X0.508000*%
%ADD14R,0.762000X1.016000*%
G36*
X21511Y45956D02*
X25137Y45956D01*
X25615Y45973D01*
X26067Y46021D01*
X26493Y46102D01*
X26894Y46215D01*
X27270Y46360D01*
X27619Y46538D01*
X27943Y46748D01*
X28242Y46990D01*
X28510Y47260D01*
X28742Y47552D01*
X28939Y47866D01*
X29099Y48203D01*
X29224Y48562D01*
X29314Y48944D01*
X29367Y49348D01*
X29385Y49775D01*
X29367Y50205D01*
X29314Y50610D01*
X29225Y50990D01*
X29100Y51345D01*
X28940Y51675D01*
X28745Y51981D01*
X28513Y52261D01*
X28246Y52517D01*
X27947Y52744D01*
X27619Y52942D01*
X27261Y53109D01*
X26873Y53246D01*
X26457Y53352D01*
X26011Y53428D01*
X25536Y53474D01*
X25032Y53489D01*
X19838Y53489D01*
X19838Y41148D01*
X21511Y41148D01*
X21511Y45956D01*
G37*
G36*
X39436Y42488D02*
X36431Y42488D01*
X36431Y53489D01*
X34978Y53489D01*
X32061Y51483D01*
X32061Y49994D01*
X34846Y51982D01*
X34846Y42488D01*
X31702Y42488D01*
X31702Y41148D01*
X39436Y41148D01*
X39436Y42488D01*
G37*
G36*
X13812Y40989D02*
X14201Y41037D01*
X14567Y41118D01*
X14912Y41230D01*
X15233Y41375D01*
X15532Y41552D01*
X15809Y41761D01*
X16063Y42002D01*
X16291Y42271D01*
X16489Y42564D01*
X16656Y42882D01*
X16792Y43223D01*
X16899Y43588D01*
X16975Y43977D01*
X17020Y44390D01*
X17035Y44827D01*
X17035Y53489D01*
X12998Y53489D01*
X12998Y52122D01*
X15371Y52122D01*
X15371Y44792D01*
X15363Y44498D01*
X15338Y44224D01*
X15297Y43967D01*
X15240Y43728D01*
X15166Y43508D01*
X15076Y43306D01*
X14969Y43122D01*
X14846Y42957D01*
X14708Y42810D01*
X14559Y42683D01*
X14397Y42575D01*
X14224Y42487D01*
X14038Y42418D01*
X13841Y42370D01*
X13631Y42340D01*
X13409Y42330D01*
X13206Y42339D01*
X13011Y42366D01*
X12825Y42410D01*
X12647Y42473D01*
X12479Y42553D01*
X12319Y42651D01*
X12168Y42766D01*
X12026Y42900D01*
X11894Y43049D01*
X11774Y43212D01*
X11667Y43390D01*
X11572Y43581D01*
X11490Y43786D01*
X11420Y44005D01*
X11362Y44238D01*
X11316Y44485D01*
X9678Y44213D01*
X9762Y43821D01*
X9865Y43454D01*
X9988Y43112D01*
X10131Y42796D01*
X10294Y42505D01*
X10477Y42239D01*
X10680Y41998D01*
X10902Y41783D01*
X11145Y41593D01*
X11407Y41429D01*
X11690Y41289D01*
X11992Y41175D01*
X12314Y41087D01*
X12657Y41023D01*
X13019Y40986D01*
X13401Y40973D01*
X13812Y40989D01*
G37*
%LPC*%
G36*
X21511Y47279D02*
X21511Y52149D01*
X24831Y52149D01*
X25178Y52139D01*
X25504Y52111D01*
X25807Y52065D01*
X26087Y51999D01*
X26346Y51915D01*
X26581Y51812D01*
X26794Y51691D01*
X26985Y51551D01*
X27153Y51392D01*
X27299Y51215D01*
X27423Y51019D01*
X27524Y50804D01*
X27602Y50570D01*
X27658Y50318D01*
X27692Y50047D01*
X27703Y49758D01*
X27692Y49457D01*
X27660Y49177D01*
X27605Y48915D01*
X27528Y48673D01*
X27430Y48451D01*
X27309Y48247D01*
X27167Y48063D01*
X27003Y47899D01*
X26817Y47753D01*
X26609Y47628D01*
X26379Y47521D01*
X26127Y47434D01*
X25853Y47366D01*
X25558Y47318D01*
X25240Y47289D01*
X24901Y47279D01*
X21511Y47279D01*
G37*
%LPD*%
G36*
X265150Y62480D02*
X263810Y62480D01*
X263810Y56043D01*
X263500Y56195D01*
X263185Y56389D01*
X262863Y56624D01*
X262536Y56901D01*
X262195Y57224D01*
X261834Y57599D01*
X261453Y58026D01*
X261051Y58504D01*
X260355Y59345D01*
X259757Y60039D01*
X259256Y60584D01*
X258853Y60982D01*
X258498Y61286D01*
X258143Y61551D01*
X257788Y61775D01*
X257434Y61959D01*
X257078Y62103D01*
X256722Y62205D01*
X256365Y62267D01*
X256006Y62287D01*
X255613Y62272D01*
X255242Y62225D01*
X254895Y62146D01*
X254571Y62037D01*
X254270Y61896D01*
X253992Y61723D01*
X253737Y61520D01*
X253506Y61285D01*
X253299Y61020D01*
X253120Y60729D01*
X252969Y60411D01*
X252845Y60066D01*
X252749Y59694D01*
X252680Y59295D01*
X252639Y58869D01*
X252625Y58416D01*
X252639Y58001D01*
X252680Y57605D01*
X252748Y57229D01*
X252844Y56871D01*
X252967Y56533D01*
X253118Y56215D01*
X253296Y55915D01*
X253501Y55635D01*
X253730Y55379D01*
X253977Y55151D01*
X254243Y54952D01*
X254528Y54780D01*
X254832Y54637D01*
X255155Y54523D01*
X255497Y54436D01*
X255857Y54378D01*
X256006Y55990D01*
X255766Y56027D01*
X255539Y56081D01*
X255326Y56151D01*
X255127Y56239D01*
X254942Y56343D01*
X254770Y56464D01*
X254613Y56602D01*
X254469Y56756D01*
X254341Y56925D01*
X254229Y57105D01*
X254135Y57296D01*
X254058Y57498D01*
X253999Y57711D01*
X253956Y57935D01*
X253930Y58170D01*
X253922Y58416D01*
X253930Y58674D01*
X253957Y58917D01*
X254000Y59146D01*
X254062Y59360D01*
X254141Y59560D01*
X254237Y59745D01*
X254351Y59915D01*
X254482Y60072D01*
X254629Y60211D01*
X254791Y60332D01*
X254967Y60434D01*
X255157Y60518D01*
X255361Y60583D01*
X255579Y60630D01*
X255812Y60658D01*
X256059Y60667D01*
X256425Y60645D01*
X256772Y60581D01*
X257100Y60472D01*
X257407Y60321D01*
X257702Y60135D01*
X257990Y59922D01*
X258271Y59681D01*
X258546Y59415D01*
X259089Y58820D01*
X259632Y58158D01*
X260198Y57458D01*
X260810Y56752D01*
X261137Y56401D01*
X261482Y56059D01*
X261846Y55725D01*
X262229Y55399D01*
X262636Y55089D01*
X263073Y54804D01*
X263540Y54544D01*
X264038Y54308D01*
X265150Y54308D01*
X265150Y62480D01*
G37*
G36*
X109744Y54203D02*
X110139Y54256D01*
X110509Y54343D01*
X110854Y54465D01*
X111174Y54622D01*
X111470Y54814D01*
X111741Y55041D01*
X111988Y55302D01*
X112208Y55595D01*
X112398Y55915D01*
X112559Y56261D01*
X112691Y56635D01*
X112793Y57035D01*
X112867Y57463D01*
X112911Y57917D01*
X112925Y58399D01*
X112910Y58892D01*
X112866Y59355D01*
X112791Y59790D01*
X112687Y60194D01*
X112552Y60569D01*
X112388Y60915D01*
X112194Y61230D01*
X111971Y61517D01*
X111720Y61771D01*
X111446Y61992D01*
X111149Y62178D01*
X110828Y62331D01*
X110483Y62450D01*
X110115Y62535D01*
X109723Y62586D01*
X109308Y62603D01*
X109010Y62592D01*
X108725Y62562D01*
X108452Y62510D01*
X108192Y62438D01*
X107945Y62346D01*
X107711Y62233D01*
X107489Y62100D01*
X107280Y61946D01*
X107243Y61912D01*
X107087Y61773D01*
X106914Y61585D01*
X106760Y61379D01*
X106625Y61158D01*
X106509Y60919D01*
X106412Y60665D01*
X106335Y60394D01*
X106277Y60107D01*
X106242Y60107D01*
X106183Y60354D01*
X106105Y60588D01*
X106009Y60808D01*
X105894Y61015D01*
X105761Y61209D01*
X105625Y61371D01*
X105610Y61389D01*
X105441Y61556D01*
X105253Y61709D01*
X105051Y61847D01*
X104842Y61966D01*
X104623Y62067D01*
X104397Y62149D01*
X104161Y62214D01*
X103918Y62259D01*
X103665Y62287D01*
X103405Y62296D01*
X103048Y62280D01*
X102711Y62230D01*
X102393Y62148D01*
X102093Y62032D01*
X101812Y61884D01*
X101551Y61703D01*
X101308Y61488D01*
X101084Y61241D01*
X100882Y60965D01*
X100708Y60665D01*
X100561Y60341D01*
X100440Y59994D01*
X100346Y59622D01*
X100279Y59227D01*
X100239Y58807D01*
X100225Y58364D01*
X100239Y57930D01*
X100280Y57520D01*
X100348Y57132D01*
X100444Y56766D01*
X100567Y56423D01*
X100718Y56103D01*
X100896Y55805D01*
X101101Y55530D01*
X101328Y55283D01*
X101572Y55068D01*
X101833Y54887D01*
X102111Y54739D01*
X102405Y54623D01*
X102715Y54541D01*
X103043Y54491D01*
X103387Y54475D01*
X103648Y54484D01*
X103900Y54511D01*
X104144Y54557D01*
X104379Y54620D01*
X104606Y54702D01*
X104824Y54802D01*
X105034Y54921D01*
X105235Y55057D01*
X105424Y55209D01*
X105595Y55375D01*
X105749Y55554D01*
X105886Y55746D01*
X106005Y55951D01*
X106107Y56170D01*
X106192Y56402D01*
X106260Y56647D01*
X106295Y56647D01*
X106349Y56384D01*
X106423Y56132D01*
X106518Y55893D01*
X106632Y55666D01*
X106767Y55451D01*
X106922Y55248D01*
X107098Y55057D01*
X107293Y54878D01*
X107505Y54716D01*
X107729Y54575D01*
X107965Y54456D01*
X108213Y54359D01*
X108473Y54283D01*
X108745Y54229D01*
X109029Y54197D01*
X109325Y54186D01*
X109744Y54203D01*
G37*
%LPC*%
G36*
X108928Y55825D02*
X108676Y55857D01*
X108439Y55910D01*
X108216Y55983D01*
X108009Y56078D01*
X107815Y56194D01*
X107637Y56331D01*
X107473Y56489D01*
X107326Y56666D01*
X107199Y56859D01*
X107091Y57069D01*
X107003Y57295D01*
X106935Y57538D01*
X106886Y57796D01*
X106857Y58072D01*
X106847Y58364D01*
X106856Y58664D01*
X106883Y58947D01*
X106929Y59212D01*
X106992Y59461D01*
X107074Y59692D01*
X107174Y59906D01*
X107293Y60102D01*
X107429Y60282D01*
X107584Y60442D01*
X107756Y60581D01*
X107945Y60698D01*
X108153Y60794D01*
X108378Y60869D01*
X108621Y60922D01*
X108881Y60954D01*
X109159Y60965D01*
X109485Y60955D01*
X109788Y60925D01*
X110068Y60876D01*
X110325Y60807D01*
X110559Y60719D01*
X110771Y60610D01*
X110960Y60482D01*
X111125Y60334D01*
X111270Y60166D01*
X111395Y59978D01*
X111502Y59769D01*
X111588Y59539D01*
X111656Y59289D01*
X111704Y59019D01*
X111733Y58728D01*
X111743Y58416D01*
X111733Y58101D01*
X111703Y57806D01*
X111653Y57532D01*
X111584Y57278D01*
X111494Y57044D01*
X111384Y56831D01*
X111255Y56638D01*
X111106Y56465D01*
X110936Y56313D01*
X110747Y56181D01*
X110538Y56069D01*
X110309Y55977D01*
X110060Y55906D01*
X109791Y55855D01*
X109503Y55825D01*
X109194Y55815D01*
X108928Y55825D01*
G37*
G36*
X103240Y56095D02*
X103003Y56123D01*
X102783Y56168D01*
X102579Y56232D01*
X102391Y56314D01*
X102220Y56414D01*
X102064Y56532D01*
X101924Y56669D01*
X101801Y56823D01*
X101695Y56993D01*
X101604Y57180D01*
X101530Y57384D01*
X101473Y57604D01*
X101432Y57841D01*
X101407Y58094D01*
X101399Y58364D01*
X101407Y58641D01*
X101432Y58901D01*
X101473Y59143D01*
X101530Y59368D01*
X101603Y59574D01*
X101693Y59762D01*
X101800Y59932D01*
X101922Y60085D01*
X102061Y60219D01*
X102217Y60336D01*
X102388Y60434D01*
X102576Y60515D01*
X102781Y60578D01*
X103002Y60622D01*
X103239Y60649D01*
X103492Y60658D01*
X103769Y60649D01*
X104026Y60622D01*
X104263Y60576D01*
X104481Y60513D01*
X104678Y60431D01*
X104856Y60331D01*
X105014Y60212D01*
X105152Y60076D01*
X105272Y59922D01*
X105376Y59752D01*
X105464Y59565D01*
X105536Y59361D01*
X105592Y59141D01*
X105632Y58904D01*
X105656Y58651D01*
X105664Y58381D01*
X105656Y58115D01*
X105630Y57865D01*
X105586Y57630D01*
X105525Y57410D01*
X105447Y57206D01*
X105352Y57017D01*
X105239Y56844D01*
X105108Y56686D01*
X104961Y56546D01*
X104799Y56424D01*
X104620Y56321D01*
X104426Y56236D01*
X104216Y56171D01*
X103991Y56124D01*
X103749Y56096D01*
X103492Y56086D01*
X103240Y56095D01*
G37*
%LPD*%
G36*
X236981Y54156D02*
X237356Y54251D01*
X237707Y54375D01*
X238032Y54526D01*
X238332Y54706D01*
X238607Y54915D01*
X238856Y55151D01*
X239080Y55416D01*
X239278Y55707D01*
X239450Y56022D01*
X239595Y56360D01*
X239714Y56722D01*
X239806Y57108D01*
X239872Y57518D01*
X239912Y57951D01*
X239925Y58407D01*
X239911Y58896D01*
X239867Y59357D01*
X239793Y59788D01*
X239691Y60190D01*
X239559Y60563D01*
X239398Y60907D01*
X239208Y61222D01*
X238988Y61508D01*
X238742Y61762D01*
X238471Y61983D01*
X238177Y62170D01*
X237858Y62322D01*
X237516Y62441D01*
X237149Y62526D01*
X236758Y62577D01*
X236343Y62594D01*
X236054Y62582D01*
X235777Y62546D01*
X235513Y62486D01*
X235261Y62401D01*
X235022Y62293D01*
X234796Y62160D01*
X234582Y62004D01*
X234381Y61823D01*
X234196Y61621D01*
X234031Y61400D01*
X233885Y61159D01*
X233759Y60899D01*
X233653Y60620D01*
X233566Y60322D01*
X233500Y60005D01*
X233453Y59669D01*
X233418Y59669D01*
X233344Y59975D01*
X233256Y60262D01*
X233153Y60530D01*
X233036Y60780D01*
X232903Y61011D01*
X232755Y61223D01*
X232592Y61416D01*
X232415Y61591D01*
X232223Y61746D01*
X232017Y61880D01*
X231797Y61994D01*
X231564Y62087D01*
X231317Y62159D01*
X231056Y62211D01*
X230781Y62242D01*
X230492Y62252D01*
X230117Y62236D01*
X229764Y62188D01*
X229432Y62108D01*
X229120Y61995D01*
X228831Y61850D01*
X228562Y61673D01*
X228314Y61464D01*
X228088Y61223D01*
X227886Y60953D01*
X227711Y60657D01*
X227562Y60335D01*
X227441Y59987D01*
X227347Y59614D01*
X227279Y59214D01*
X227239Y58789D01*
X227225Y58337D01*
X227239Y57922D01*
X227278Y57526D01*
X227345Y57150D01*
X227438Y56793D01*
X227557Y56455D01*
X227703Y56136D01*
X227876Y55837D01*
X228075Y55556D01*
X228298Y55300D01*
X228541Y55072D01*
X228806Y54873D01*
X229091Y54701D01*
X229397Y54558D01*
X229724Y54444D01*
X230071Y54358D01*
X230440Y54300D01*
X230562Y55885D01*
X230326Y55920D01*
X230104Y55971D01*
X229895Y56039D01*
X229700Y56125D01*
X229518Y56227D01*
X229350Y56346D01*
X229196Y56481D01*
X229056Y56634D01*
X228931Y56801D01*
X228822Y56981D01*
X228730Y57173D01*
X228655Y57377D01*
X228597Y57594D01*
X228555Y57824D01*
X228530Y58065D01*
X228522Y58320D01*
X228531Y58598D01*
X228557Y58858D01*
X228602Y59101D01*
X228665Y59326D01*
X228746Y59533D01*
X228844Y59723D01*
X228961Y59895D01*
X229095Y60050D01*
X229245Y60186D01*
X229408Y60304D01*
X229584Y60405D01*
X229773Y60486D01*
X229975Y60550D01*
X230190Y60596D01*
X230418Y60623D01*
X230659Y60632D01*
X230902Y60621D01*
X231131Y60587D01*
X231347Y60532D01*
X231549Y60454D01*
X231737Y60353D01*
X231913Y60231D01*
X232074Y60086D01*
X232222Y59918D01*
X232354Y59731D01*
X232469Y59525D01*
X232566Y59301D01*
X232646Y59059D01*
X232708Y58798D01*
X232752Y58520D01*
X232778Y58223D01*
X232787Y57908D01*
X232787Y57050D01*
X234153Y57050D01*
X234153Y57943D01*
X234162Y58298D01*
X234189Y58632D01*
X234233Y58943D01*
X234295Y59234D01*
X234374Y59503D01*
X234471Y59750D01*
X234586Y59976D01*
X234718Y60181D01*
X234866Y60363D01*
X235028Y60520D01*
X235204Y60653D01*
X235394Y60762D01*
X235597Y60847D01*
X235814Y60908D01*
X236046Y60944D01*
X236290Y60956D01*
X236571Y60946D01*
X236833Y60914D01*
X237077Y60861D01*
X237304Y60786D01*
X237513Y60691D01*
X237704Y60574D01*
X237878Y60436D01*
X238033Y60277D01*
X238171Y60100D01*
X238290Y59906D01*
X238391Y59696D01*
X238473Y59470D01*
X238538Y59229D01*
X238584Y58971D01*
X238611Y58697D01*
X238620Y58407D01*
X238612Y58119D01*
X238586Y57846D01*
X238543Y57590D01*
X238483Y57349D01*
X238406Y57125D01*
X238312Y56917D01*
X238201Y56724D01*
X238073Y56548D01*
X237927Y56388D01*
X237765Y56244D01*
X237585Y56117D01*
X237389Y56005D01*
X237175Y55909D01*
X236944Y55829D01*
X236696Y55766D01*
X236431Y55719D01*
X236579Y54089D01*
X236981Y54156D01*
G37*
G36*
X211556Y59634D02*
X214350Y59634D01*
X214350Y61123D01*
X211556Y61123D01*
X211556Y62857D01*
X210312Y62857D01*
X210312Y61123D01*
X202009Y61123D01*
X202009Y59467D01*
X210330Y53818D01*
X211556Y53818D01*
X211556Y59634D01*
G37*
%LPC*%
G36*
X210137Y55412D02*
X209489Y55885D01*
X204829Y59047D01*
X204251Y59388D01*
X203787Y59634D01*
X210312Y59634D01*
X210312Y55272D01*
X210137Y55412D01*
G37*
%LPD*%
G36*
X186537Y54207D02*
X186863Y54313D01*
X187167Y54444D01*
X187450Y54600D01*
X187712Y54779D01*
X187953Y54983D01*
X188173Y55212D01*
X188372Y55465D01*
X188549Y55740D01*
X188702Y56036D01*
X188831Y56353D01*
X188937Y56691D01*
X189019Y57049D01*
X189078Y57429D01*
X189113Y57829D01*
X189125Y58250D01*
X189108Y58750D01*
X189055Y59223D01*
X188968Y59667D01*
X188845Y60084D01*
X188687Y60472D01*
X188495Y60832D01*
X188267Y61164D01*
X188004Y61468D01*
X187711Y61740D01*
X187392Y61976D01*
X187046Y62176D01*
X186675Y62339D01*
X186278Y62466D01*
X185854Y62556D01*
X185405Y62611D01*
X184930Y62629D01*
X184511Y62612D01*
X184112Y62561D01*
X183733Y62477D01*
X183375Y62359D01*
X183037Y62206D01*
X182719Y62021D01*
X182422Y61801D01*
X182145Y61547D01*
X181894Y61265D01*
X181677Y60960D01*
X181493Y60632D01*
X181343Y60281D01*
X181226Y59906D01*
X181143Y59508D01*
X181093Y59088D01*
X181076Y58644D01*
X181088Y58271D01*
X181125Y57913D01*
X181187Y57571D01*
X181273Y57245D01*
X181384Y56934D01*
X181520Y56639D01*
X181680Y56359D01*
X181864Y56095D01*
X177949Y56332D01*
X177949Y61911D01*
X176609Y61911D01*
X176609Y54895D01*
X183248Y54484D01*
X183248Y56025D01*
X183025Y56301D01*
X182837Y56577D01*
X182683Y56853D01*
X182565Y57129D01*
X182477Y57410D01*
X182414Y57702D01*
X182376Y58006D01*
X182364Y58320D01*
X182375Y58618D01*
X182408Y58901D01*
X182465Y59169D01*
X182543Y59420D01*
X182644Y59656D01*
X182768Y59876D01*
X182913Y60080D01*
X183082Y60269D01*
X183268Y60438D01*
X183469Y60585D01*
X183683Y60709D01*
X183912Y60811D01*
X184154Y60890D01*
X184410Y60946D01*
X184681Y60980D01*
X184965Y60991D01*
X185291Y60980D01*
X185599Y60946D01*
X185889Y60890D01*
X186162Y60812D01*
X186416Y60711D01*
X186652Y60587D01*
X186871Y60441D01*
X187071Y60273D01*
X187251Y60085D01*
X187407Y59879D01*
X187538Y59657D01*
X187646Y59417D01*
X187730Y59160D01*
X187790Y58885D01*
X187826Y58594D01*
X187838Y58285D01*
X187831Y58033D01*
X187809Y57793D01*
X187773Y57565D01*
X187723Y57349D01*
X187659Y57146D01*
X187580Y56955D01*
X187487Y56776D01*
X187380Y56610D01*
X187259Y56455D01*
X187123Y56313D01*
X186972Y56184D01*
X186808Y56066D01*
X186629Y55961D01*
X186436Y55868D01*
X186229Y55787D01*
X186007Y55719D01*
X186191Y54124D01*
X186537Y54207D01*
G37*
G36*
X158382Y54334D02*
X159056Y54386D01*
X159686Y54472D01*
X160272Y54593D01*
X160814Y54748D01*
X161312Y54938D01*
X161765Y55162D01*
X162175Y55421D01*
X162538Y55712D01*
X162853Y56034D01*
X163120Y56386D01*
X163338Y56770D01*
X163507Y57183D01*
X163628Y57628D01*
X163701Y58103D01*
X163719Y58352D01*
X163725Y58609D01*
X163708Y59063D01*
X163655Y59491D01*
X163566Y59895D01*
X163443Y60273D01*
X163284Y60626D01*
X163090Y60954D01*
X162860Y61257D01*
X162595Y61534D01*
X162300Y61783D01*
X161979Y61998D01*
X161632Y62180D01*
X161260Y62329D01*
X160861Y62445D01*
X160437Y62528D01*
X159988Y62577D01*
X159512Y62594D01*
X159073Y62578D01*
X158656Y62531D01*
X158263Y62453D01*
X157892Y62343D01*
X157544Y62202D01*
X157220Y62030D01*
X156918Y61826D01*
X156640Y61591D01*
X156389Y61329D01*
X156172Y61046D01*
X155988Y60740D01*
X155838Y60412D01*
X155721Y60062D01*
X155638Y59690D01*
X155588Y59296D01*
X155571Y58880D01*
X155577Y58632D01*
X155597Y58391D01*
X155630Y58157D01*
X155675Y57930D01*
X155805Y57498D01*
X155987Y57094D01*
X156219Y56726D01*
X156498Y56402D01*
X156825Y56121D01*
X157200Y55885D01*
X156622Y55896D01*
X156079Y55931D01*
X155572Y55989D01*
X155099Y56070D01*
X154662Y56174D01*
X154260Y56301D01*
X153893Y56452D01*
X153561Y56625D01*
X153266Y56820D01*
X153011Y57033D01*
X152795Y57266D01*
X152618Y57517D01*
X152481Y57788D01*
X152383Y58078D01*
X152324Y58386D01*
X152304Y58714D01*
X152328Y59089D01*
X152398Y59429D01*
X152516Y59735D01*
X152681Y60006D01*
X152893Y60243D01*
X153151Y60445D01*
X153457Y60613D01*
X153811Y60746D01*
X153539Y62252D01*
X153235Y62153D01*
X152950Y62038D01*
X152685Y61907D01*
X152439Y61760D01*
X152213Y61596D01*
X152007Y61416D01*
X151821Y61221D01*
X151654Y61009D01*
X151506Y60781D01*
X151379Y60536D01*
X151271Y60276D01*
X151182Y59999D01*
X151114Y59707D01*
X151065Y59398D01*
X151035Y59073D01*
X151025Y58731D01*
X151032Y58470D01*
X151052Y58217D01*
X151086Y57971D01*
X151133Y57732D01*
X151193Y57502D01*
X151267Y57278D01*
X151454Y56855D01*
X151696Y56462D01*
X151991Y56099D01*
X152340Y55767D01*
X152742Y55465D01*
X153194Y55196D01*
X153693Y54963D01*
X154239Y54765D01*
X154831Y54604D01*
X155469Y54478D01*
X156155Y54389D01*
X156886Y54335D01*
X157664Y54317D01*
X158382Y54334D01*
G37*
%LPC*%
G36*
X158931Y56053D02*
X158671Y56085D01*
X158427Y56138D01*
X158197Y56212D01*
X157983Y56308D01*
X157784Y56424D01*
X157601Y56562D01*
X157432Y56721D01*
X157281Y56898D01*
X157151Y57087D01*
X157040Y57290D01*
X156949Y57506D01*
X156879Y57736D01*
X156829Y57978D01*
X156798Y58234D01*
X156788Y58504D01*
X156800Y58789D01*
X156834Y59058D01*
X156891Y59311D01*
X156970Y59548D01*
X157072Y59769D01*
X157197Y59974D01*
X157345Y60162D01*
X157515Y60334D01*
X157707Y60488D01*
X157917Y60622D01*
X158147Y60735D01*
X158396Y60827D01*
X158664Y60899D01*
X158951Y60950D01*
X159257Y60981D01*
X159582Y60991D01*
X159908Y60981D01*
X160217Y60951D01*
X160507Y60900D01*
X160779Y60829D01*
X161033Y60738D01*
X161270Y60627D01*
X161488Y60495D01*
X161689Y60343D01*
X161868Y60173D01*
X162024Y59988D01*
X162156Y59788D01*
X162264Y59572D01*
X162347Y59341D01*
X162407Y59095D01*
X162443Y58833D01*
X162455Y58556D01*
X162441Y58287D01*
X162398Y58029D01*
X162327Y57785D01*
X162227Y57552D01*
X162099Y57332D01*
X161943Y57125D01*
X161758Y56930D01*
X161544Y56748D01*
X161309Y56582D01*
X161057Y56439D01*
X160788Y56318D01*
X160504Y56219D01*
X160204Y56142D01*
X159887Y56087D01*
X159555Y56054D01*
X159206Y56043D01*
X158931Y56053D01*
G37*
%LPD*%
G36*
X127149Y60956D02*
X127989Y60390D01*
X128803Y59866D01*
X129593Y59385D01*
X130358Y58945D01*
X131099Y58547D01*
X131814Y58191D01*
X132505Y57878D01*
X133171Y57606D01*
X133821Y57371D01*
X134462Y57167D01*
X135097Y56995D01*
X135723Y56854D01*
X136341Y56744D01*
X136952Y56666D01*
X137555Y56619D01*
X138150Y56603D01*
X138150Y58250D01*
X137725Y58256D01*
X137303Y58274D01*
X136471Y58347D01*
X135652Y58469D01*
X134848Y58639D01*
X134048Y58859D01*
X133243Y59127D01*
X132432Y59443D01*
X131616Y59809D01*
X130719Y60268D01*
X129665Y60866D01*
X128455Y61604D01*
X127088Y62480D01*
X125809Y62480D01*
X125809Y54326D01*
X127149Y54326D01*
X127149Y60956D01*
G37*
G36*
X278869Y62595D02*
X282495Y62595D01*
X282973Y62612D01*
X283425Y62660D01*
X283851Y62741D01*
X284252Y62854D01*
X284627Y62999D01*
X284977Y63177D01*
X285301Y63387D01*
X285600Y63629D01*
X285868Y63899D01*
X286100Y64191D01*
X286296Y64505D01*
X286457Y64842D01*
X286582Y65201D01*
X286671Y65583D01*
X286725Y65987D01*
X286743Y66414D01*
X286725Y66844D01*
X286672Y67249D01*
X286583Y67629D01*
X286458Y67984D01*
X286298Y68314D01*
X286102Y68620D01*
X285871Y68900D01*
X285604Y69156D01*
X285305Y69383D01*
X284976Y69581D01*
X284618Y69748D01*
X284231Y69885D01*
X283815Y69991D01*
X283369Y70067D01*
X282894Y70113D01*
X282390Y70128D01*
X277196Y70128D01*
X277196Y57787D01*
X278869Y57787D01*
X278869Y62595D01*
G37*
G36*
X296767Y59127D02*
X290330Y59127D01*
X290482Y59437D01*
X290676Y59752D01*
X290911Y60074D01*
X291188Y60401D01*
X291511Y60742D01*
X291886Y61103D01*
X292313Y61484D01*
X292791Y61886D01*
X293632Y62582D01*
X294326Y63180D01*
X294871Y63681D01*
X295269Y64084D01*
X295573Y64439D01*
X295838Y64794D01*
X296062Y65149D01*
X296246Y65503D01*
X296390Y65859D01*
X296492Y66215D01*
X296554Y66572D01*
X296574Y66931D01*
X296559Y67324D01*
X296512Y67695D01*
X296433Y68042D01*
X296324Y68366D01*
X296183Y68667D01*
X296010Y68945D01*
X295807Y69200D01*
X295572Y69431D01*
X295307Y69638D01*
X295016Y69817D01*
X294698Y69968D01*
X294353Y70092D01*
X293981Y70188D01*
X293582Y70257D01*
X293156Y70298D01*
X292703Y70312D01*
X292288Y70298D01*
X291892Y70257D01*
X291516Y70189D01*
X291158Y70093D01*
X290820Y69970D01*
X290502Y69819D01*
X290202Y69641D01*
X289922Y69436D01*
X289666Y69207D01*
X289438Y68960D01*
X289239Y68694D01*
X289067Y68409D01*
X288924Y68105D01*
X288810Y67782D01*
X288723Y67440D01*
X288665Y67080D01*
X290277Y66931D01*
X290314Y67171D01*
X290368Y67398D01*
X290438Y67611D01*
X290526Y67810D01*
X290630Y67995D01*
X290751Y68167D01*
X290889Y68324D01*
X291043Y68468D01*
X291212Y68596D01*
X291392Y68708D01*
X291583Y68802D01*
X291785Y68879D01*
X291998Y68938D01*
X292222Y68981D01*
X292457Y69007D01*
X292703Y69015D01*
X292961Y69007D01*
X293204Y68980D01*
X293433Y68937D01*
X293647Y68875D01*
X293847Y68796D01*
X294032Y68700D01*
X294202Y68586D01*
X294359Y68455D01*
X294498Y68308D01*
X294619Y68146D01*
X294721Y67970D01*
X294805Y67780D01*
X294870Y67576D01*
X294917Y67358D01*
X294945Y67125D01*
X294954Y66878D01*
X294932Y66512D01*
X294868Y66165D01*
X294759Y65837D01*
X294608Y65530D01*
X294422Y65235D01*
X294209Y64947D01*
X293968Y64666D01*
X293702Y64391D01*
X293107Y63848D01*
X292445Y63305D01*
X291745Y62739D01*
X291039Y62127D01*
X290688Y61800D01*
X290346Y61455D01*
X290012Y61091D01*
X289686Y60708D01*
X289376Y60301D01*
X289091Y59864D01*
X288831Y59397D01*
X288595Y58899D01*
X288595Y57787D01*
X296767Y57787D01*
X296767Y59127D01*
G37*
G36*
X271170Y57628D02*
X271559Y57676D01*
X271925Y57757D01*
X272269Y57869D01*
X272591Y58014D01*
X272890Y58191D01*
X273167Y58400D01*
X273421Y58641D01*
X273649Y58910D01*
X273846Y59203D01*
X274013Y59521D01*
X274150Y59862D01*
X274256Y60227D01*
X274332Y60616D01*
X274378Y61029D01*
X274393Y61466D01*
X274393Y70128D01*
X270356Y70128D01*
X270356Y68761D01*
X272729Y68761D01*
X272729Y61431D01*
X272721Y61137D01*
X272696Y60863D01*
X272655Y60606D01*
X272598Y60367D01*
X272524Y60147D01*
X272433Y59945D01*
X272327Y59761D01*
X272204Y59596D01*
X272066Y59449D01*
X271917Y59322D01*
X271755Y59214D01*
X271582Y59126D01*
X271396Y59057D01*
X271199Y59009D01*
X270989Y58979D01*
X270767Y58969D01*
X270564Y58978D01*
X270369Y59005D01*
X270183Y59049D01*
X270005Y59112D01*
X269837Y59192D01*
X269677Y59290D01*
X269526Y59405D01*
X269383Y59539D01*
X269252Y59688D01*
X269132Y59851D01*
X269025Y60029D01*
X268930Y60220D01*
X268848Y60425D01*
X268777Y60644D01*
X268719Y60877D01*
X268674Y61124D01*
X267036Y60852D01*
X267119Y60460D01*
X267223Y60093D01*
X267346Y59751D01*
X267489Y59435D01*
X267652Y59144D01*
X267835Y58878D01*
X268037Y58637D01*
X268260Y58422D01*
X268503Y58232D01*
X268765Y58068D01*
X269048Y57928D01*
X269350Y57814D01*
X269672Y57726D01*
X270014Y57662D01*
X270376Y57625D01*
X270758Y57612D01*
X271170Y57628D01*
G37*
%LPC*%
G36*
X278869Y63918D02*
X278869Y68788D01*
X282188Y68788D01*
X282536Y68778D01*
X282862Y68750D01*
X283165Y68704D01*
X283445Y68638D01*
X283703Y68554D01*
X283939Y68451D01*
X284152Y68330D01*
X284343Y68190D01*
X284511Y68031D01*
X284657Y67854D01*
X284781Y67658D01*
X284882Y67443D01*
X284960Y67209D01*
X285016Y66957D01*
X285050Y66686D01*
X285061Y66397D01*
X285050Y66096D01*
X285017Y65816D01*
X284963Y65554D01*
X284886Y65312D01*
X284787Y65090D01*
X284667Y64886D01*
X284525Y64702D01*
X284360Y64538D01*
X284174Y64392D01*
X283966Y64267D01*
X283736Y64160D01*
X283485Y64073D01*
X283211Y64005D01*
X282915Y63957D01*
X282598Y63928D01*
X282258Y63918D01*
X278869Y63918D01*
G37*
%LPD*%
G36*
X333851Y45956D02*
X337477Y45956D01*
X337955Y45973D01*
X338407Y46021D01*
X338833Y46102D01*
X339234Y46215D01*
X339610Y46360D01*
X339959Y46538D01*
X340283Y46748D01*
X340582Y46990D01*
X340850Y47260D01*
X341082Y47552D01*
X341279Y47866D01*
X341439Y48203D01*
X341564Y48562D01*
X341654Y48944D01*
X341707Y49348D01*
X341725Y49775D01*
X341707Y50205D01*
X341654Y50610D01*
X341565Y50990D01*
X341440Y51345D01*
X341280Y51675D01*
X341085Y51981D01*
X340853Y52261D01*
X340586Y52517D01*
X340287Y52744D01*
X339959Y52942D01*
X339601Y53109D01*
X339213Y53246D01*
X338797Y53352D01*
X338351Y53428D01*
X337876Y53474D01*
X337372Y53489D01*
X332178Y53489D01*
X332178Y41148D01*
X333851Y41148D01*
X333851Y45956D01*
G37*
G36*
X348166Y40988D02*
X348626Y41031D01*
X349057Y41105D01*
X349459Y41207D01*
X349832Y41339D01*
X350176Y41500D01*
X350491Y41690D01*
X350777Y41910D01*
X351032Y42156D01*
X351252Y42427D01*
X351439Y42721D01*
X351592Y43040D01*
X351710Y43383D01*
X351795Y43749D01*
X351846Y44140D01*
X351863Y44555D01*
X351851Y44844D01*
X351815Y45121D01*
X351755Y45385D01*
X351671Y45637D01*
X351562Y45876D01*
X351430Y46102D01*
X351273Y46316D01*
X351092Y46517D01*
X350890Y46702D01*
X350669Y46867D01*
X350428Y47013D01*
X350168Y47139D01*
X349890Y47245D01*
X349591Y47332D01*
X349274Y47398D01*
X348938Y47445D01*
X348938Y47480D01*
X349244Y47554D01*
X349531Y47642D01*
X349799Y47745D01*
X350049Y47863D01*
X350280Y47995D01*
X350492Y48143D01*
X350686Y48306D01*
X350860Y48483D01*
X351015Y48675D01*
X351150Y48881D01*
X351263Y49101D01*
X351356Y49334D01*
X351429Y49581D01*
X351480Y49842D01*
X351511Y50117D01*
X351522Y50406D01*
X351506Y50781D01*
X351457Y51134D01*
X351377Y51466D01*
X351264Y51778D01*
X351120Y52068D01*
X350943Y52336D01*
X350734Y52584D01*
X350493Y52810D01*
X350222Y53012D01*
X349926Y53187D01*
X349604Y53336D01*
X349256Y53457D01*
X348883Y53551D01*
X348483Y53619D01*
X348058Y53659D01*
X347607Y53673D01*
X347191Y53659D01*
X346796Y53620D01*
X346419Y53553D01*
X346062Y53460D01*
X345724Y53341D01*
X345405Y53195D01*
X345106Y53022D01*
X344826Y52823D01*
X344569Y52600D01*
X344342Y52357D01*
X344142Y52092D01*
X343971Y51807D01*
X343828Y51501D01*
X343713Y51174D01*
X343627Y50827D01*
X343569Y50458D01*
X345154Y50336D01*
X345189Y50572D01*
X345240Y50794D01*
X345309Y51003D01*
X345394Y51198D01*
X345496Y51380D01*
X345615Y51548D01*
X345751Y51702D01*
X345903Y51842D01*
X346070Y51967D01*
X346250Y52076D01*
X346442Y52168D01*
X346646Y52243D01*
X346863Y52301D01*
X347093Y52343D01*
X347335Y52368D01*
X347589Y52376D01*
X347867Y52367D01*
X348127Y52341D01*
X348370Y52296D01*
X348595Y52233D01*
X348803Y52152D01*
X348992Y52054D01*
X349164Y51937D01*
X349319Y51803D01*
X349455Y51653D01*
X349574Y51490D01*
X349674Y51314D01*
X349756Y51125D01*
X349819Y50923D01*
X349865Y50708D01*
X349892Y50480D01*
X349901Y50239D01*
X349890Y49997D01*
X349857Y49767D01*
X349801Y49551D01*
X349723Y49349D01*
X349622Y49161D01*
X349500Y48986D01*
X349355Y48824D01*
X349187Y48676D01*
X349000Y48544D01*
X348794Y48429D01*
X348570Y48332D01*
X348328Y48252D01*
X348068Y48190D01*
X347789Y48146D01*
X347492Y48120D01*
X347177Y48111D01*
X346319Y48111D01*
X346319Y46745D01*
X347212Y46745D01*
X347567Y46736D01*
X347901Y46709D01*
X348213Y46665D01*
X348503Y46603D01*
X348772Y46524D01*
X349020Y46427D01*
X349246Y46312D01*
X349450Y46180D01*
X349632Y46032D01*
X349789Y45870D01*
X349923Y45694D01*
X350032Y45504D01*
X350116Y45301D01*
X350177Y45084D01*
X350213Y44853D01*
X350225Y44608D01*
X350215Y44327D01*
X350183Y44065D01*
X350130Y43821D01*
X350056Y43594D01*
X349960Y43385D01*
X349844Y43194D01*
X349706Y43020D01*
X349547Y42865D01*
X349369Y42727D01*
X349175Y42608D01*
X348965Y42507D01*
X348740Y42425D01*
X348498Y42360D01*
X348240Y42315D01*
X347966Y42287D01*
X347677Y42278D01*
X347388Y42286D01*
X347115Y42312D01*
X346859Y42355D01*
X346618Y42415D01*
X346394Y42492D01*
X346186Y42586D01*
X345994Y42697D01*
X345818Y42825D01*
X345658Y42971D01*
X345514Y43133D01*
X345386Y43313D01*
X345274Y43510D01*
X345178Y43723D01*
X345099Y43954D01*
X345035Y44202D01*
X344988Y44467D01*
X343359Y44319D01*
X343425Y43917D01*
X343520Y43542D01*
X343644Y43191D01*
X343795Y42866D01*
X343976Y42566D01*
X344184Y42291D01*
X344421Y42042D01*
X344686Y41818D01*
X344977Y41620D01*
X345291Y41448D01*
X345630Y41303D01*
X345992Y41184D01*
X346377Y41092D01*
X346787Y41026D01*
X347220Y40986D01*
X347677Y40973D01*
X348166Y40988D01*
G37*
G36*
X326152Y40989D02*
X326541Y41037D01*
X326907Y41118D01*
X327252Y41230D01*
X327573Y41375D01*
X327872Y41552D01*
X328149Y41761D01*
X328403Y42002D01*
X328631Y42271D01*
X328829Y42564D01*
X328996Y42882D01*
X329132Y43223D01*
X329239Y43588D01*
X329315Y43977D01*
X329360Y44390D01*
X329375Y44827D01*
X329375Y53489D01*
X325338Y53489D01*
X325338Y52122D01*
X327711Y52122D01*
X327711Y44792D01*
X327703Y44498D01*
X327678Y44224D01*
X327637Y43967D01*
X327580Y43728D01*
X327506Y43508D01*
X327416Y43306D01*
X327309Y43122D01*
X327186Y42957D01*
X327048Y42810D01*
X326899Y42683D01*
X326737Y42575D01*
X326564Y42487D01*
X326378Y42418D01*
X326181Y42370D01*
X325971Y42340D01*
X325749Y42330D01*
X325546Y42339D01*
X325351Y42366D01*
X325165Y42410D01*
X324987Y42473D01*
X324819Y42553D01*
X324659Y42651D01*
X324508Y42766D01*
X324366Y42900D01*
X324234Y43049D01*
X324114Y43212D01*
X324007Y43390D01*
X323912Y43581D01*
X323830Y43786D01*
X323760Y44005D01*
X323702Y44238D01*
X323656Y44485D01*
X322018Y44213D01*
X322102Y43821D01*
X322205Y43454D01*
X322328Y43112D01*
X322471Y42796D01*
X322634Y42505D01*
X322817Y42239D01*
X323020Y41998D01*
X323242Y41783D01*
X323485Y41593D01*
X323747Y41429D01*
X324030Y41289D01*
X324332Y41175D01*
X324654Y41087D01*
X324997Y41023D01*
X325359Y40986D01*
X325741Y40973D01*
X326152Y40989D01*
G37*
%LPC*%
G36*
X333851Y47279D02*
X333851Y52149D01*
X337171Y52149D01*
X337518Y52139D01*
X337844Y52111D01*
X338147Y52065D01*
X338427Y51999D01*
X338686Y51915D01*
X338921Y51812D01*
X339134Y51691D01*
X339325Y51551D01*
X339493Y51392D01*
X339639Y51215D01*
X339763Y51019D01*
X339864Y50804D01*
X339942Y50570D01*
X339998Y50318D01*
X340032Y50047D01*
X340043Y49758D01*
X340032Y49457D01*
X340000Y49177D01*
X339945Y48915D01*
X339868Y48673D01*
X339770Y48451D01*
X339649Y48247D01*
X339507Y48063D01*
X339343Y47899D01*
X339157Y47753D01*
X338949Y47628D01*
X338719Y47521D01*
X338467Y47434D01*
X338193Y47366D01*
X337898Y47318D01*
X337580Y47289D01*
X337241Y47279D01*
X333851Y47279D01*
G37*
%LPD*%
G36*
X57071Y45956D02*
X60697Y45956D01*
X61175Y45973D01*
X61627Y46021D01*
X62053Y46102D01*
X62454Y46215D01*
X62830Y46360D01*
X63179Y46538D01*
X63503Y46748D01*
X63802Y46990D01*
X64070Y47260D01*
X64302Y47552D01*
X64499Y47866D01*
X64659Y48203D01*
X64784Y48562D01*
X64874Y48944D01*
X64927Y49348D01*
X64945Y49775D01*
X64927Y50205D01*
X64874Y50610D01*
X64785Y50990D01*
X64660Y51345D01*
X64500Y51675D01*
X64305Y51981D01*
X64073Y52261D01*
X63806Y52517D01*
X63507Y52744D01*
X63179Y52942D01*
X62821Y53109D01*
X62433Y53246D01*
X62017Y53352D01*
X61571Y53428D01*
X61096Y53474D01*
X60592Y53489D01*
X55398Y53489D01*
X55398Y41148D01*
X57071Y41148D01*
X57071Y45956D01*
G37*
G36*
X73612Y43942D02*
X75346Y43942D01*
X75346Y45186D01*
X73612Y45186D01*
X73612Y53489D01*
X71956Y53489D01*
X66307Y45168D01*
X66307Y43942D01*
X72123Y43942D01*
X72123Y41148D01*
X73612Y41148D01*
X73612Y43942D01*
G37*
G36*
X49372Y40989D02*
X49761Y41037D01*
X50127Y41118D01*
X50472Y41230D01*
X50793Y41375D01*
X51092Y41552D01*
X51369Y41761D01*
X51623Y42002D01*
X51851Y42271D01*
X52049Y42564D01*
X52216Y42882D01*
X52352Y43223D01*
X52459Y43588D01*
X52535Y43977D01*
X52580Y44390D01*
X52595Y44827D01*
X52595Y53489D01*
X48558Y53489D01*
X48558Y52122D01*
X50931Y52122D01*
X50931Y44792D01*
X50923Y44498D01*
X50898Y44224D01*
X50857Y43967D01*
X50800Y43728D01*
X50726Y43508D01*
X50636Y43306D01*
X50529Y43122D01*
X50406Y42957D01*
X50268Y42810D01*
X50119Y42683D01*
X49957Y42575D01*
X49784Y42487D01*
X49598Y42418D01*
X49401Y42370D01*
X49191Y42340D01*
X48969Y42330D01*
X48766Y42339D01*
X48571Y42366D01*
X48385Y42410D01*
X48207Y42473D01*
X48039Y42553D01*
X47879Y42651D01*
X47728Y42766D01*
X47586Y42900D01*
X47454Y43049D01*
X47334Y43212D01*
X47227Y43390D01*
X47132Y43581D01*
X47050Y43786D01*
X46980Y44005D01*
X46922Y44238D01*
X46876Y44485D01*
X45238Y44213D01*
X45322Y43821D01*
X45425Y43454D01*
X45548Y43112D01*
X45691Y42796D01*
X45854Y42505D01*
X46037Y42239D01*
X46240Y41998D01*
X46462Y41783D01*
X46705Y41593D01*
X46967Y41429D01*
X47250Y41289D01*
X47552Y41175D01*
X47874Y41087D01*
X48217Y41023D01*
X48579Y40986D01*
X48961Y40973D01*
X49372Y40989D01*
G37*
%LPC*%
G36*
X57071Y47279D02*
X57071Y52149D01*
X60391Y52149D01*
X60738Y52139D01*
X61064Y52111D01*
X61367Y52065D01*
X61647Y51999D01*
X61906Y51915D01*
X62141Y51812D01*
X62354Y51691D01*
X62545Y51551D01*
X62713Y51392D01*
X62859Y51215D01*
X62983Y51019D01*
X63084Y50804D01*
X63162Y50570D01*
X63218Y50318D01*
X63252Y50047D01*
X63263Y49758D01*
X63252Y49457D01*
X63220Y49177D01*
X63165Y48915D01*
X63088Y48673D01*
X62990Y48451D01*
X62869Y48247D01*
X62727Y48063D01*
X62563Y47899D01*
X62377Y47753D01*
X62169Y47628D01*
X61939Y47521D01*
X61687Y47434D01*
X61413Y47366D01*
X61118Y47318D01*
X60800Y47289D01*
X60461Y47279D01*
X57071Y47279D01*
G37*
G36*
X67761Y45186D02*
X67901Y45361D01*
X68374Y46009D01*
X71536Y50669D01*
X71878Y51247D01*
X72123Y51711D01*
X72123Y45186D01*
X67761Y45186D01*
G37*
%LPD*%
G36*
X366188Y453069D02*
X361380Y453069D01*
X361380Y456695D01*
X361363Y457173D01*
X361315Y457625D01*
X361234Y458051D01*
X361121Y458452D01*
X360976Y458827D01*
X360798Y459177D01*
X360588Y459501D01*
X360346Y459800D01*
X360076Y460068D01*
X359784Y460300D01*
X359470Y460496D01*
X359133Y460657D01*
X358774Y460782D01*
X358392Y460871D01*
X357988Y460925D01*
X357561Y460943D01*
X357131Y460925D01*
X356726Y460872D01*
X356346Y460783D01*
X355991Y460658D01*
X355661Y460498D01*
X355355Y460302D01*
X355075Y460071D01*
X354819Y459804D01*
X354592Y459505D01*
X354394Y459176D01*
X354227Y458818D01*
X354090Y458431D01*
X353984Y458015D01*
X353908Y457569D01*
X353862Y457094D01*
X353847Y456590D01*
X353847Y451396D01*
X366188Y451396D01*
X366188Y453069D01*
G37*
G36*
X363775Y462694D02*
X364101Y462800D01*
X364405Y462931D01*
X364688Y463087D01*
X364950Y463266D01*
X365191Y463470D01*
X365411Y463699D01*
X365610Y463952D01*
X365787Y464227D01*
X365940Y464523D01*
X366069Y464840D01*
X366175Y465178D01*
X366257Y465536D01*
X366316Y465916D01*
X366351Y466316D01*
X366363Y466737D01*
X366346Y467237D01*
X366293Y467710D01*
X366206Y468154D01*
X366083Y468571D01*
X365925Y468959D01*
X365733Y469319D01*
X365505Y469651D01*
X365242Y469955D01*
X364949Y470227D01*
X364630Y470463D01*
X364284Y470663D01*
X363913Y470826D01*
X363516Y470953D01*
X363092Y471043D01*
X362643Y471098D01*
X362168Y471116D01*
X361749Y471099D01*
X361350Y471048D01*
X360971Y470964D01*
X360613Y470846D01*
X360275Y470693D01*
X359957Y470508D01*
X359660Y470288D01*
X359383Y470034D01*
X359132Y469752D01*
X358915Y469447D01*
X358731Y469119D01*
X358581Y468768D01*
X358464Y468393D01*
X358381Y467995D01*
X358331Y467575D01*
X358314Y467131D01*
X358326Y466758D01*
X358363Y466400D01*
X358425Y466058D01*
X358511Y465732D01*
X358622Y465421D01*
X358758Y465126D01*
X358918Y464846D01*
X359102Y464582D01*
X355187Y464819D01*
X355187Y470398D01*
X353847Y470398D01*
X353847Y463382D01*
X360486Y462971D01*
X360486Y464512D01*
X360263Y464788D01*
X360075Y465064D01*
X359921Y465340D01*
X359803Y465616D01*
X359715Y465897D01*
X359652Y466189D01*
X359614Y466493D01*
X359602Y466807D01*
X359613Y467105D01*
X359646Y467388D01*
X359703Y467656D01*
X359781Y467907D01*
X359882Y468143D01*
X360006Y468363D01*
X360151Y468567D01*
X360320Y468756D01*
X360506Y468925D01*
X360707Y469072D01*
X360921Y469196D01*
X361150Y469298D01*
X361392Y469377D01*
X361648Y469433D01*
X361919Y469467D01*
X362203Y469478D01*
X362529Y469467D01*
X362837Y469433D01*
X363127Y469377D01*
X363400Y469299D01*
X363654Y469198D01*
X363890Y469074D01*
X364109Y468928D01*
X364309Y468760D01*
X364489Y468572D01*
X364645Y468366D01*
X364776Y468144D01*
X364884Y467904D01*
X364968Y467647D01*
X365028Y467372D01*
X365064Y467081D01*
X365076Y466772D01*
X365069Y466520D01*
X365047Y466280D01*
X365011Y466052D01*
X364961Y465836D01*
X364897Y465633D01*
X364818Y465442D01*
X364725Y465263D01*
X364618Y465097D01*
X364497Y464942D01*
X364361Y464800D01*
X364210Y464671D01*
X364046Y464553D01*
X363867Y464448D01*
X363674Y464355D01*
X363467Y464274D01*
X363245Y464206D01*
X363429Y462611D01*
X363775Y462694D01*
G37*
G36*
X363515Y441319D02*
X363882Y441423D01*
X364224Y441546D01*
X364540Y441689D01*
X364831Y441852D01*
X365097Y442035D01*
X365338Y442237D01*
X365553Y442460D01*
X365743Y442703D01*
X365907Y442965D01*
X366047Y443248D01*
X366161Y443550D01*
X366249Y443872D01*
X366313Y444214D01*
X366351Y444576D01*
X366363Y444958D01*
X366347Y445370D01*
X366299Y445759D01*
X366218Y446125D01*
X366106Y446469D01*
X365961Y446791D01*
X365784Y447090D01*
X365575Y447367D01*
X365334Y447621D01*
X365065Y447849D01*
X364772Y448046D01*
X364454Y448213D01*
X364113Y448350D01*
X363748Y448456D01*
X363359Y448532D01*
X362946Y448578D01*
X362509Y448593D01*
X353847Y448593D01*
X353847Y444556D01*
X355214Y444556D01*
X355214Y446929D01*
X362544Y446929D01*
X362838Y446921D01*
X363112Y446896D01*
X363369Y446855D01*
X363608Y446798D01*
X363828Y446724D01*
X364030Y446633D01*
X364214Y446527D01*
X364379Y446404D01*
X364526Y446266D01*
X364653Y446117D01*
X364761Y445955D01*
X364849Y445782D01*
X364918Y445596D01*
X364966Y445399D01*
X364996Y445189D01*
X365006Y444967D01*
X364997Y444764D01*
X364970Y444569D01*
X364926Y444383D01*
X364863Y444205D01*
X364783Y444037D01*
X364685Y443877D01*
X364570Y443726D01*
X364436Y443583D01*
X364287Y443452D01*
X364124Y443332D01*
X363947Y443225D01*
X363755Y443130D01*
X363550Y443048D01*
X363331Y442977D01*
X363098Y442919D01*
X362851Y442874D01*
X363123Y441236D01*
X363515Y441319D01*
G37*
%LPC*%
G36*
X355187Y453069D02*
X355187Y456388D01*
X355197Y456736D01*
X355225Y457062D01*
X355271Y457365D01*
X355337Y457645D01*
X355421Y457903D01*
X355524Y458139D01*
X355645Y458352D01*
X355785Y458543D01*
X355944Y458711D01*
X356121Y458857D01*
X356317Y458981D01*
X356532Y459082D01*
X356766Y459160D01*
X357018Y459216D01*
X357289Y459250D01*
X357578Y459261D01*
X357879Y459250D01*
X358159Y459217D01*
X358421Y459163D01*
X358663Y459086D01*
X358885Y458987D01*
X359089Y458867D01*
X359273Y458725D01*
X359437Y458560D01*
X359583Y458374D01*
X359708Y458166D01*
X359815Y457936D01*
X359902Y457685D01*
X359970Y457411D01*
X360018Y457115D01*
X360047Y456798D01*
X360057Y456458D01*
X360057Y453069D01*
X355187Y453069D01*
G37*
%LPD*%
G36*
X87228Y452069D02*
X82420Y452069D01*
X82420Y455695D01*
X82403Y456173D01*
X82355Y456625D01*
X82274Y457051D01*
X82161Y457452D01*
X82016Y457827D01*
X81838Y458177D01*
X81628Y458501D01*
X81386Y458800D01*
X81116Y459068D01*
X80824Y459300D01*
X80510Y459496D01*
X80173Y459657D01*
X79814Y459782D01*
X79432Y459871D01*
X79028Y459925D01*
X78601Y459943D01*
X78171Y459925D01*
X77766Y459872D01*
X77386Y459783D01*
X77031Y459658D01*
X76701Y459498D01*
X76395Y459302D01*
X76115Y459071D01*
X75859Y458804D01*
X75632Y458505D01*
X75434Y458176D01*
X75267Y457818D01*
X75130Y457431D01*
X75024Y457015D01*
X74948Y456569D01*
X74902Y456094D01*
X74887Y455590D01*
X74887Y450396D01*
X87228Y450396D01*
X87228Y452069D01*
G37*
G36*
X82060Y461821D02*
X82734Y461873D01*
X83364Y461959D01*
X83950Y462080D01*
X84492Y462235D01*
X84990Y462425D01*
X85443Y462649D01*
X85853Y462908D01*
X86216Y463199D01*
X86531Y463521D01*
X86798Y463873D01*
X87016Y464257D01*
X87185Y464670D01*
X87306Y465115D01*
X87379Y465590D01*
X87397Y465839D01*
X87403Y466096D01*
X87386Y466550D01*
X87333Y466978D01*
X87244Y467382D01*
X87121Y467760D01*
X86962Y468113D01*
X86768Y468441D01*
X86538Y468744D01*
X86273Y469021D01*
X85978Y469270D01*
X85657Y469485D01*
X85310Y469667D01*
X84938Y469816D01*
X84539Y469932D01*
X84115Y470015D01*
X83666Y470064D01*
X83190Y470081D01*
X82751Y470065D01*
X82334Y470018D01*
X81941Y469940D01*
X81570Y469830D01*
X81222Y469689D01*
X80898Y469517D01*
X80596Y469313D01*
X80318Y469078D01*
X80067Y468816D01*
X79850Y468533D01*
X79666Y468227D01*
X79516Y467899D01*
X79399Y467549D01*
X79316Y467177D01*
X79266Y466783D01*
X79249Y466367D01*
X79255Y466119D01*
X79275Y465878D01*
X79308Y465644D01*
X79353Y465417D01*
X79483Y464985D01*
X79665Y464581D01*
X79897Y464213D01*
X80176Y463889D01*
X80503Y463608D01*
X80878Y463372D01*
X80300Y463383D01*
X79757Y463418D01*
X79250Y463476D01*
X78777Y463557D01*
X78340Y463661D01*
X77938Y463788D01*
X77571Y463939D01*
X77239Y464112D01*
X76944Y464307D01*
X76689Y464520D01*
X76473Y464753D01*
X76296Y465004D01*
X76159Y465275D01*
X76061Y465565D01*
X76002Y465873D01*
X75982Y466201D01*
X76006Y466576D01*
X76076Y466916D01*
X76194Y467222D01*
X76359Y467493D01*
X76571Y467730D01*
X76829Y467932D01*
X77135Y468100D01*
X77489Y468233D01*
X77217Y469739D01*
X76913Y469640D01*
X76628Y469525D01*
X76363Y469394D01*
X76117Y469247D01*
X75891Y469083D01*
X75685Y468903D01*
X75499Y468708D01*
X75332Y468496D01*
X75184Y468268D01*
X75057Y468023D01*
X74949Y467763D01*
X74860Y467486D01*
X74792Y467194D01*
X74743Y466885D01*
X74713Y466560D01*
X74703Y466218D01*
X74710Y465957D01*
X74730Y465704D01*
X74764Y465458D01*
X74811Y465219D01*
X74871Y464989D01*
X74945Y464765D01*
X75132Y464342D01*
X75374Y463949D01*
X75669Y463586D01*
X76018Y463254D01*
X76420Y462952D01*
X76872Y462683D01*
X77371Y462450D01*
X77917Y462252D01*
X78509Y462091D01*
X79147Y461965D01*
X79833Y461876D01*
X80564Y461822D01*
X81342Y461804D01*
X82060Y461821D01*
G37*
G36*
X84555Y440319D02*
X84922Y440423D01*
X85264Y440546D01*
X85580Y440689D01*
X85871Y440852D01*
X86137Y441035D01*
X86378Y441237D01*
X86593Y441460D01*
X86783Y441703D01*
X86947Y441965D01*
X87087Y442248D01*
X87201Y442550D01*
X87289Y442872D01*
X87353Y443214D01*
X87391Y443576D01*
X87403Y443958D01*
X87387Y444370D01*
X87339Y444759D01*
X87258Y445125D01*
X87146Y445469D01*
X87001Y445791D01*
X86824Y446090D01*
X86615Y446367D01*
X86374Y446621D01*
X86105Y446849D01*
X85812Y447046D01*
X85494Y447213D01*
X85153Y447350D01*
X84788Y447456D01*
X84399Y447532D01*
X83986Y447578D01*
X83549Y447593D01*
X74887Y447593D01*
X74887Y443556D01*
X76254Y443556D01*
X76254Y445929D01*
X83584Y445929D01*
X83878Y445921D01*
X84152Y445896D01*
X84409Y445855D01*
X84648Y445798D01*
X84868Y445724D01*
X85070Y445633D01*
X85254Y445527D01*
X85419Y445404D01*
X85566Y445266D01*
X85693Y445117D01*
X85801Y444955D01*
X85889Y444782D01*
X85958Y444596D01*
X86006Y444399D01*
X86036Y444189D01*
X86046Y443967D01*
X86037Y443764D01*
X86010Y443569D01*
X85966Y443383D01*
X85903Y443205D01*
X85823Y443037D01*
X85725Y442877D01*
X85610Y442726D01*
X85476Y442583D01*
X85327Y442452D01*
X85164Y442332D01*
X84987Y442225D01*
X84795Y442130D01*
X84590Y442048D01*
X84371Y441977D01*
X84138Y441919D01*
X83891Y441874D01*
X84163Y440236D01*
X84555Y440319D01*
G37*
%LPC*%
G36*
X76227Y452069D02*
X76227Y455388D01*
X76237Y455736D01*
X76265Y456062D01*
X76311Y456365D01*
X76377Y456645D01*
X76461Y456903D01*
X76564Y457139D01*
X76685Y457352D01*
X76825Y457543D01*
X76984Y457711D01*
X77161Y457857D01*
X77357Y457981D01*
X77572Y458082D01*
X77806Y458160D01*
X78058Y458216D01*
X78329Y458250D01*
X78618Y458261D01*
X78919Y458250D01*
X79199Y458217D01*
X79461Y458163D01*
X79703Y458086D01*
X79925Y457987D01*
X80129Y457867D01*
X80313Y457725D01*
X80477Y457560D01*
X80623Y457374D01*
X80748Y457166D01*
X80855Y456936D01*
X80942Y456685D01*
X81010Y456411D01*
X81058Y456115D01*
X81087Y455798D01*
X81097Y455458D01*
X81097Y452069D01*
X76227Y452069D01*
G37*
G36*
X82609Y463540D02*
X82349Y463572D01*
X82105Y463625D01*
X81875Y463699D01*
X81661Y463795D01*
X81462Y463911D01*
X81279Y464049D01*
X81110Y464208D01*
X80959Y464385D01*
X80829Y464574D01*
X80718Y464777D01*
X80627Y464993D01*
X80557Y465223D01*
X80507Y465465D01*
X80476Y465721D01*
X80466Y465991D01*
X80478Y466276D01*
X80512Y466545D01*
X80569Y466798D01*
X80648Y467035D01*
X80750Y467256D01*
X80875Y467461D01*
X81023Y467649D01*
X81193Y467821D01*
X81385Y467975D01*
X81595Y468109D01*
X81825Y468222D01*
X82074Y468314D01*
X82342Y468386D01*
X82629Y468437D01*
X82935Y468468D01*
X83260Y468478D01*
X83586Y468468D01*
X83895Y468438D01*
X84185Y468387D01*
X84457Y468316D01*
X84711Y468225D01*
X84948Y468114D01*
X85166Y467982D01*
X85367Y467830D01*
X85546Y467660D01*
X85702Y467475D01*
X85834Y467275D01*
X85942Y467059D01*
X86025Y466828D01*
X86085Y466582D01*
X86121Y466320D01*
X86133Y466043D01*
X86119Y465774D01*
X86076Y465516D01*
X86005Y465272D01*
X85905Y465039D01*
X85777Y464819D01*
X85621Y464612D01*
X85436Y464417D01*
X85222Y464235D01*
X84987Y464069D01*
X84735Y463926D01*
X84466Y463805D01*
X84182Y463706D01*
X83882Y463629D01*
X83565Y463574D01*
X83233Y463541D01*
X82884Y463530D01*
X82609Y463540D01*
G37*
%LPD*%
G36*
X100033Y-38561D02*
X100588Y-38517D01*
X101110Y-38443D01*
X101597Y-38341D01*
X102050Y-38209D01*
X102469Y-38048D01*
X102854Y-37858D01*
X103205Y-37638D01*
X103518Y-37392D01*
X103790Y-37121D01*
X104019Y-36827D01*
X104207Y-36508D01*
X104353Y-36166D01*
X104457Y-35799D01*
X104520Y-35408D01*
X104541Y-34993D01*
X104529Y-34667D01*
X104494Y-34362D01*
X104435Y-34080D01*
X104353Y-33819D01*
X104249Y-33578D01*
X104128Y-33353D01*
X103989Y-33144D01*
X103831Y-32952D01*
X103658Y-32775D01*
X103469Y-32613D01*
X103266Y-32464D01*
X103048Y-32330D01*
X102580Y-32093D01*
X102080Y-31888D01*
X101551Y-31713D01*
X100998Y-31564D01*
X99864Y-31297D01*
X99085Y-31116D01*
X98447Y-30950D01*
X97951Y-30798D01*
X97595Y-30662D01*
X97327Y-30526D01*
X97093Y-30375D01*
X96892Y-30210D01*
X96724Y-30031D01*
X96592Y-29833D01*
X96497Y-29610D01*
X96441Y-29362D01*
X96422Y-29090D01*
X96434Y-28854D01*
X96470Y-28634D01*
X96531Y-28428D01*
X96617Y-28238D01*
X96726Y-28063D01*
X96860Y-27902D01*
X97019Y-27757D01*
X97201Y-27627D01*
X97407Y-27512D01*
X97635Y-27412D01*
X97884Y-27328D01*
X98156Y-27259D01*
X98449Y-27206D01*
X98765Y-27167D01*
X99102Y-27144D01*
X99461Y-27137D01*
X99789Y-27143D01*
X100099Y-27164D01*
X100390Y-27199D01*
X100663Y-27247D01*
X100918Y-27309D01*
X101154Y-27385D01*
X101372Y-27475D01*
X101572Y-27579D01*
X101755Y-27698D01*
X101922Y-27834D01*
X102074Y-27986D01*
X102211Y-28156D01*
X102333Y-28342D01*
X102439Y-28545D01*
X102530Y-28765D01*
X102605Y-29002D01*
X104252Y-28713D01*
X104130Y-28340D01*
X103987Y-27995D01*
X103823Y-27678D01*
X103639Y-27389D01*
X103433Y-27129D01*
X103207Y-26898D01*
X102960Y-26694D01*
X102693Y-26519D01*
X102399Y-26368D01*
X102075Y-26237D01*
X101719Y-26127D01*
X101333Y-26036D01*
X100916Y-25966D01*
X100468Y-25916D01*
X99988Y-25885D01*
X99478Y-25875D01*
X98930Y-25889D01*
X98414Y-25929D01*
X97931Y-25996D01*
X97480Y-26090D01*
X97063Y-26211D01*
X96678Y-26358D01*
X96325Y-26532D01*
X96006Y-26734D01*
X95721Y-26960D01*
X95475Y-27208D01*
X95266Y-27480D01*
X95096Y-27774D01*
X94963Y-28091D01*
X94868Y-28430D01*
X94812Y-28792D01*
X94793Y-29177D01*
X94807Y-29513D01*
X94851Y-29830D01*
X94923Y-30126D01*
X95025Y-30403D01*
X95154Y-30662D01*
X95308Y-30904D01*
X95489Y-31129D01*
X95695Y-31336D01*
X95934Y-31531D01*
X96213Y-31716D01*
X96531Y-31892D01*
X96890Y-32059D01*
X97313Y-32221D01*
X97824Y-32383D01*
X98423Y-32545D01*
X99111Y-32707D01*
X100643Y-33066D01*
X100977Y-33154D01*
X101287Y-33252D01*
X101573Y-33360D01*
X101834Y-33478D01*
X102070Y-33609D01*
X102278Y-33756D01*
X102458Y-33919D01*
X102610Y-34100D01*
X102730Y-34302D01*
X102817Y-34533D01*
X102868Y-34793D01*
X102886Y-35081D01*
X102872Y-35342D01*
X102830Y-35587D01*
X102762Y-35815D01*
X102665Y-36028D01*
X102542Y-36224D01*
X102390Y-36403D01*
X102212Y-36567D01*
X102005Y-36714D01*
X101774Y-36844D01*
X101519Y-36957D01*
X101241Y-37053D01*
X100940Y-37131D01*
X100616Y-37192D01*
X100269Y-37235D01*
X99898Y-37261D01*
X99505Y-37270D01*
X99123Y-37262D01*
X98762Y-37238D01*
X98421Y-37197D01*
X98101Y-37140D01*
X97802Y-37067D01*
X97523Y-36977D01*
X97264Y-36871D01*
X97026Y-36749D01*
X96808Y-36610D01*
X96610Y-36452D01*
X96432Y-36275D01*
X96273Y-36080D01*
X96134Y-35867D01*
X96014Y-35635D01*
X95915Y-35384D01*
X95835Y-35116D01*
X94215Y-35440D01*
X94319Y-35819D01*
X94453Y-36175D01*
X94617Y-36505D01*
X94811Y-36811D01*
X95034Y-37093D01*
X95287Y-37350D01*
X95569Y-37583D01*
X95881Y-37791D01*
X96222Y-37975D01*
X96594Y-38134D01*
X96995Y-38269D01*
X97425Y-38379D01*
X97885Y-38465D01*
X98375Y-38526D01*
X98894Y-38563D01*
X99443Y-38575D01*
X100033Y-38561D01*
G37*
G36*
X117254Y-26059D02*
X115494Y-26059D01*
X112095Y-34748D01*
X111360Y-36929D01*
X110624Y-34748D01*
X107208Y-26059D01*
X105448Y-26059D01*
X110484Y-38400D01*
X112218Y-38400D01*
X117254Y-26059D01*
G37*
G36*
X126438Y-37060D02*
X123433Y-37060D01*
X123433Y-26059D01*
X121980Y-26059D01*
X119063Y-28065D01*
X119063Y-29554D01*
X121848Y-27566D01*
X121848Y-37060D01*
X118704Y-37060D01*
X118704Y-38400D01*
X126438Y-38400D01*
X126438Y-37060D01*
G37*
D10*
X16510Y35560D02*
X29210Y35560D01*
X35560Y29210D01*
X35560Y16510D01*
X29210Y10160D01*
X10160Y16510D02*
X10160Y29210D01*
X16510Y35560D01*
X10160Y16510D02*
X16510Y10160D01*
X29210Y10160D01*
X296900Y73535D02*
X296900Y78615D01*
X296900Y73535D02*
X296900Y-125D01*
X275310Y-125D01*
X271500Y-125D01*
X267690Y-125D01*
X249910Y-125D01*
X246100Y-125D01*
X242290Y-125D01*
X224510Y-125D01*
X220700Y-125D01*
X216890Y-125D01*
X199110Y-125D01*
X195300Y-125D01*
X191490Y-125D01*
X173710Y-125D01*
X169900Y-125D02*
X169900Y73535D01*
X275310Y73535D02*
X296900Y73535D01*
X275310Y73535D02*
X271500Y73535D01*
X267690Y73535D01*
X249910Y73535D01*
X246100Y73535D01*
X242290Y73535D01*
X224510Y73535D01*
X220700Y73535D01*
X216890Y73535D01*
X199110Y73535D01*
X195300Y73535D01*
X191490Y73535D01*
X173710Y73535D01*
X169900Y73535D01*
X195300Y73535D02*
X195300Y-125D01*
X220700Y-125D02*
X220700Y73535D01*
X246100Y73535D02*
X246100Y-125D01*
X271500Y-125D02*
X271500Y73535D01*
D11*
X275310Y73535D02*
X275310Y-125D01*
X267690Y-125D02*
X267690Y73535D01*
X249910Y73535D02*
X249910Y-125D01*
X242290Y-125D02*
X242290Y73535D01*
X224510Y73535D02*
X224510Y-125D01*
X216890Y-125D02*
X216890Y73535D01*
X199110Y73535D02*
X199110Y-125D01*
X191490Y-125D02*
X191490Y73535D01*
D10*
X173710Y73535D02*
X173710Y-125D01*
X169900Y-125D01*
X166090Y-125D01*
D11*
X166090Y73535D01*
D10*
X93700Y78615D02*
X296900Y78615D01*
X166090Y-125D02*
X148310Y-125D01*
X144500Y-125D02*
X144500Y73535D01*
X166090Y73535D02*
X169900Y73535D01*
X166090Y73535D02*
X148310Y73535D01*
X144500Y73535D01*
D11*
X148310Y73535D02*
X148310Y-125D01*
D10*
X144500Y-125D01*
X140690Y-125D01*
X122910Y-125D01*
X119100Y-125D01*
X119100Y73535D01*
D11*
X140690Y73535D02*
X140690Y-125D01*
D10*
X140690Y73535D02*
X144500Y73535D01*
X140690Y73535D02*
X122910Y73535D01*
X119100Y73535D01*
X119100Y-125D02*
X115290Y-125D01*
X93700Y-125D01*
X93700Y73535D01*
X93700Y78615D01*
X115290Y73535D02*
X119100Y73535D01*
X115290Y73535D02*
X93700Y73535D01*
D11*
X115290Y73535D02*
X115290Y-125D01*
X122910Y-125D02*
X122910Y73535D01*
D10*
X328850Y35560D02*
X341550Y35560D01*
X347900Y29210D01*
X347900Y16510D01*
X341550Y10160D01*
X322500Y16510D02*
X322500Y29210D01*
X328850Y35560D01*
X322500Y16510D02*
X328850Y10160D01*
X341550Y10160D01*
X64770Y35560D02*
X52070Y35560D01*
X64770Y35560D02*
X71120Y29210D01*
X71120Y16510D01*
X64770Y10160D01*
X45720Y16510D02*
X45720Y29210D01*
X52070Y35560D01*
X45720Y16510D02*
X52070Y10160D01*
X64770Y10160D01*
X347900Y147250D02*
X347900Y159950D01*
X347900Y147250D02*
X341550Y140900D01*
X328850Y140900D01*
X322500Y147250D01*
X341550Y140900D02*
X347900Y134550D01*
X347900Y121850D01*
X341550Y115500D01*
X328850Y115500D01*
X322500Y121850D01*
X322500Y134550D01*
X328850Y140900D01*
X347900Y185350D02*
X341550Y191700D01*
X347900Y185350D02*
X347900Y172650D01*
X341550Y166300D01*
X328850Y166300D01*
X322500Y172650D01*
X322500Y185350D01*
X328850Y191700D01*
X341550Y166300D02*
X347900Y159950D01*
X328850Y166300D02*
X322500Y159950D01*
X322500Y147250D01*
X347900Y223450D02*
X347900Y236150D01*
X347900Y223450D02*
X341550Y217100D01*
X328850Y217100D01*
X322500Y223450D01*
X341550Y217100D02*
X347900Y210750D01*
X347900Y198050D01*
X341550Y191700D01*
X328850Y191700D01*
X322500Y198050D01*
X322500Y210750D01*
X328850Y217100D01*
X347900Y261550D02*
X341550Y267900D01*
X347900Y261550D02*
X347900Y248850D01*
X341550Y242500D01*
X328850Y242500D01*
X322500Y248850D01*
X322500Y261550D01*
X328850Y267900D01*
X341550Y242500D02*
X347900Y236150D01*
X328850Y242500D02*
X322500Y236150D01*
X322500Y223450D01*
X347900Y299650D02*
X347900Y312350D01*
X347900Y299650D02*
X341550Y293300D01*
X328850Y293300D01*
X322500Y299650D01*
X341550Y293300D02*
X347900Y286950D01*
X347900Y274250D01*
X341550Y267900D01*
X328850Y267900D01*
X322500Y274250D01*
X322500Y286950D01*
X328850Y293300D01*
X347900Y337750D02*
X341550Y344100D01*
X347900Y337750D02*
X347900Y325050D01*
X341550Y318700D01*
X328850Y318700D01*
X322500Y325050D01*
X322500Y337750D01*
X328850Y344100D01*
X341550Y318700D02*
X347900Y312350D01*
X328850Y318700D02*
X322500Y312350D01*
X322500Y299650D01*
X347900Y375850D02*
X347900Y388550D01*
X347900Y375850D02*
X341550Y369500D01*
X328850Y369500D01*
X322500Y375850D01*
X341550Y369500D02*
X347900Y363150D01*
X347900Y350450D01*
X341550Y344100D01*
X328850Y344100D01*
X322500Y350450D01*
X322500Y363150D01*
X328850Y369500D01*
X347900Y413950D02*
X341550Y420300D01*
X347900Y413950D02*
X347900Y401250D01*
X341550Y394900D01*
X328850Y394900D01*
X322500Y401250D01*
X322500Y413950D01*
X328850Y420300D01*
X341550Y394900D02*
X347900Y388550D01*
X328850Y394900D02*
X322500Y388550D01*
X322500Y375850D01*
X347900Y452050D02*
X347900Y464750D01*
X347900Y452050D02*
X341550Y445700D01*
X328850Y445700D01*
X322500Y452050D01*
X341550Y445700D02*
X347900Y439350D01*
X347900Y426650D01*
X341550Y420300D01*
X328850Y420300D01*
X322500Y426650D01*
X322500Y439350D01*
X328850Y445700D01*
X328850Y471100D02*
X341550Y471100D01*
X347900Y464750D01*
X328850Y471100D02*
X322500Y464750D01*
X322500Y452050D01*
X341550Y115500D02*
X347900Y109150D01*
X347900Y96450D01*
X341550Y90100D01*
X328850Y90100D01*
X322500Y96450D01*
X322500Y109150D01*
X328850Y115500D01*
X68940Y146250D02*
X68940Y158950D01*
X68940Y146250D02*
X62590Y139900D01*
X49890Y139900D01*
X43540Y146250D01*
X62590Y139900D02*
X68940Y133550D01*
X68940Y120850D01*
X62590Y114500D01*
X49890Y114500D01*
X43540Y120850D01*
X43540Y133550D01*
X49890Y139900D01*
X68940Y184350D02*
X62590Y190700D01*
X68940Y184350D02*
X68940Y171650D01*
X62590Y165300D01*
X49890Y165300D01*
X43540Y171650D01*
X43540Y184350D01*
X49890Y190700D01*
X62590Y165300D02*
X68940Y158950D01*
X49890Y165300D02*
X43540Y158950D01*
X43540Y146250D01*
X68940Y222450D02*
X68940Y235150D01*
X68940Y222450D02*
X62590Y216100D01*
X49890Y216100D01*
X43540Y222450D01*
X62590Y216100D02*
X68940Y209750D01*
X68940Y197050D01*
X62590Y190700D01*
X49890Y190700D01*
X43540Y197050D01*
X43540Y209750D01*
X49890Y216100D01*
X68940Y260550D02*
X62590Y266900D01*
X68940Y260550D02*
X68940Y247850D01*
X62590Y241500D01*
X49890Y241500D01*
X43540Y247850D01*
X43540Y260550D01*
X49890Y266900D01*
X62590Y241500D02*
X68940Y235150D01*
X49890Y241500D02*
X43540Y235150D01*
X43540Y222450D01*
X68940Y298650D02*
X68940Y311350D01*
X68940Y298650D02*
X62590Y292300D01*
X49890Y292300D01*
X43540Y298650D01*
X62590Y292300D02*
X68940Y285950D01*
X68940Y273250D01*
X62590Y266900D01*
X49890Y266900D01*
X43540Y273250D01*
X43540Y285950D01*
X49890Y292300D01*
X68940Y336750D02*
X62590Y343100D01*
X68940Y336750D02*
X68940Y324050D01*
X62590Y317700D01*
X49890Y317700D01*
X43540Y324050D01*
X43540Y336750D01*
X49890Y343100D01*
X62590Y317700D02*
X68940Y311350D01*
X49890Y317700D02*
X43540Y311350D01*
X43540Y298650D01*
X68940Y374850D02*
X68940Y387550D01*
X68940Y374850D02*
X62590Y368500D01*
X49890Y368500D01*
X43540Y374850D01*
X62590Y368500D02*
X68940Y362150D01*
X68940Y349450D01*
X62590Y343100D01*
X49890Y343100D01*
X43540Y349450D01*
X43540Y362150D01*
X49890Y368500D01*
X68940Y412950D02*
X62590Y419300D01*
X68940Y412950D02*
X68940Y400250D01*
X62590Y393900D01*
X49890Y393900D01*
X43540Y400250D01*
X43540Y412950D01*
X49890Y419300D01*
X62590Y393900D02*
X68940Y387550D01*
X49890Y393900D02*
X43540Y387550D01*
X43540Y374850D01*
X68940Y451050D02*
X68940Y463750D01*
X68940Y451050D02*
X62590Y444700D01*
X49890Y444700D01*
X43540Y451050D01*
X62590Y444700D02*
X68940Y438350D01*
X68940Y425650D01*
X62590Y419300D01*
X49890Y419300D01*
X43540Y425650D01*
X43540Y438350D01*
X49890Y444700D01*
X49890Y470100D02*
X62590Y470100D01*
X68940Y463750D01*
X49890Y470100D02*
X43540Y463750D01*
X43540Y451050D01*
X62590Y114500D02*
X68940Y108150D01*
X68940Y95450D01*
X62590Y89100D01*
X49890Y89100D01*
X43540Y95450D01*
X43540Y108150D01*
X49890Y114500D01*
X93400Y-32050D02*
X118800Y-32050D01*
X118800Y-6650D01*
X93400Y-6650D01*
X93400Y-32050D01*
D12*
X106100Y-300D02*
X106100Y56850D01*
D10*
X118800Y-32050D02*
X144200Y-32050D01*
X144200Y-6650D01*
X118800Y-6650D01*
D12*
X131500Y-300D02*
X131500Y56850D01*
D10*
X144200Y-32050D02*
X169600Y-32050D01*
X169600Y-6650D01*
X144200Y-6650D01*
D12*
X156900Y-300D02*
X156900Y56850D01*
D10*
X169600Y-32050D02*
X195000Y-32050D01*
X195000Y-6650D01*
X169600Y-6650D01*
D12*
X182300Y-300D02*
X182300Y56850D01*
D10*
X195000Y-32050D02*
X220400Y-32050D01*
X220400Y-6650D01*
X195000Y-6650D01*
D12*
X207700Y-300D02*
X207700Y56850D01*
D10*
X220400Y-32050D02*
X245800Y-32050D01*
X245800Y-6650D01*
X220400Y-6650D01*
D12*
X233100Y-300D02*
X233100Y56850D01*
D10*
X245800Y-32050D02*
X271200Y-32050D01*
X271200Y-6650D01*
X245800Y-6650D01*
D12*
X258500Y-300D02*
X258500Y56850D01*
D10*
X271200Y-32050D02*
X296600Y-32050D01*
X296600Y-6650D01*
X271200Y-6650D01*
D12*
X283900Y-300D02*
X283900Y56850D01*
D13*
X106100Y-4110D03*
X131500Y-4110D03*
X156900Y-4110D03*
X182300Y-4110D03*
X207700Y-4110D03*
X233100Y-4110D03*
X258500Y-4110D03*
X283900Y-4110D03*
D14*
X106100Y-37130D03*
X131500Y-37130D03*
X156900Y-37130D03*
X182300Y-37130D03*
X207700Y-37130D03*
X233100Y-37130D03*
X258500Y-37130D03*
X283900Y-37130D03*
M02*
