<?xml version="1.0" encoding="utf-8"?>
<!-- Generator: Adobe Illustrator 16.0.3, SVG Export Plug-In . SVG Version: 6.00 Build 0)  -->
<!DOCTYPE svg PUBLIC "-//W3C//DTD SVG 1.1//EN" "http://www.w3.org/Graphics/SVG/1.1/DTD/svg11.dtd">
<svg version="1.1" id="Ebene_1" xmlns="http://www.w3.org/2000/svg" xmlns:xlink="http://www.w3.org/1999/xlink" x="0px" y="0px"
	 width="478.141px" height="127.436px" viewBox="0 0 478.141 127.436" enable-background="new 0 0 478.141 127.436"
	 xml:space="preserve">
<path fill-rule="evenodd" clip-rule="evenodd" fill="#47B39E" d="M55.863,123.356v-1.898l-11.867-6.914v-13.793
	c0.496-0.189,0.979-0.414,1.442-0.688c6.576-3.876,7.268-14.891,1.543-24.597c-5.725-9.708-15.694-14.436-22.27-10.559
	c-6.575,3.876-7.267,14.89-1.544,24.599c0.923,1.564,1.958,2.999,3.072,4.291v10.246l-14.173-8.111V45.135l-0.046-0.031L0,37.464
	v89.965h55.863V123.356z"/>
<path fill-rule="evenodd" clip-rule="evenodd" fill="#344E5C" d="M59.48,122.073l0.02,5.355h56.177V38.221l-12.059,6.687v16.904
	l-9.419,4.924c-0.342-0.059-2.432-2.015-2.903-2.279c-6.669-3.713-16.486,1.199-21.97,11.043c-5.486,9.844-5.018,21.099,1.65,24.815
	c6.669,3.713,16.599-0.742,22.084-10.586c0.884-1.588,2.065-5.276,2.617-6.888l8.025-4.64l-0.047,17.615L59.48,121.616V122.073z"/>
<path fill-rule="evenodd" clip-rule="evenodd" fill="#DF5B4A" d="M57.827,16.554l44.296,25.748l13.554-7.594V11.775H0v21.736
	l13.76,8.75l13.777-8.436l8.663,5.135c-0.17,1.422-0.176,2.99-0.17,3.528c0.079,7.633,10.416,13.436,21.685,13.319
	c11.268-0.117,19.294-6.943,19.238-13.661c-0.064-7.632-7.404-13.608-18.668-13.945c-3.813-0.113-7.491,0.648-9.164,0.969
	l-6.318-4.042L57.827,16.554z"/>
<g>
	<path fill="#334E5B" d="M123.441,69.389V11.775h37.507v10.669h-23.473v12.393h17.563v10.669h-17.563v23.883H123.441z"/>
	<path fill="#334E5B" d="M201.236,69.389l-3.201-9.685h-20.682l-3.201,9.685h-14.937l20.025-57.779h17.071l19.944,57.779H201.236z
		 M180.883,49.035h13.624l-6.812-20.518L180.883,49.035z"/>
	<path fill="#334E5B" d="M223.149,11.775h25.033c5.854,0,10.518,1.423,13.992,4.268c3.475,2.846,5.213,6.457,5.213,10.833
		c0,6.512-3.805,10.916-11.408,13.213c3.883,0.548,6.975,2.162,9.273,4.842c2.299,2.682,3.447,5.827,3.447,9.438
		c0,4.596-1.684,8.248-5.047,10.957c-3.365,2.708-8.059,4.063-14.076,4.063h-26.427V11.775z M237.184,22.444v12.475h9.192
		c2.023,0,3.652-0.52,4.883-1.56c1.232-1.039,1.848-2.585,1.848-4.637s-0.615-3.611-1.848-4.678
		c-1.23-1.067-2.859-1.601-4.883-1.601H237.184z M237.184,58.72h10.588c1.914,0,3.5-0.574,4.76-1.724
		c1.258-1.149,1.887-2.735,1.887-4.76c0-2.024-0.602-3.638-1.805-4.842c-1.205-1.203-2.764-1.806-4.678-1.806h-10.752V58.72z"/>
	<path fill="#334E5B" d="M278.465,11.775H292.5V58.72h17.48v10.669h-31.516V11.775z"/>
	<path fill="#334E5B" d="M356.381,69.389l-3.201-9.685h-20.682l-3.201,9.685H314.36l20.027-57.779h17.07l19.943,57.779H356.381z
		 M336.028,49.035h13.623l-6.811-20.518L336.028,49.035z"/>
	<path fill-rule="evenodd" clip-rule="evenodd" fill="#DF5B4A" d="M422.364,22.528c-1.184-1.798-2.465-3.486-3.83-5.064
		c-0.666-0.768-1.352-1.509-2.057-2.225C405.307,3.9,389.151-0.984,371.124,0.163c10.621,1.861,19.814,5.301,27.578,10.32
		c8.537,5.519,15.346,12.944,20.428,22.279c0.119,0.217,0.236,0.435,0.352,0.654c17.988-9.344,37.543-9.574,58.66-0.687
		C461.477,19.82,442.122,15.246,422.364,22.528z"/>
	<path fill-rule="evenodd" clip-rule="evenodd" fill="#344E5C" d="M399.319,34.794h-9.225v-12.52h9.225
		c2.031,0,3.666,0.535,4.9,1.606c1.236,1.071,1.854,2.636,1.854,4.695s-0.617,3.611-1.854,4.654
		C402.985,34.272,401.35,34.794,399.319,34.794L399.319,34.794z M396.362,12.448c-0.465-0.3-0.934-0.594-1.408-0.882h-0.367h-18.578
		v57.823h26.523c6.039,0,10.748-1.359,14.125-4.078c3.379-2.718,5.066-6.384,5.066-10.996c0-3.624-1.152-6.781-3.459-9.473
		c-2.307-2.69-5.41-4.311-9.309-4.859c3.51-1.061,6.213-2.568,8.109-4.523c0.025-0.026,0.051-0.052,0.076-0.08l-0.352-0.653
		C411.708,25.393,404.899,17.967,396.362,12.448L396.362,12.448z M390.094,45.501h10.789c1.922,0,3.488,0.604,4.695,1.813
		c1.209,1.208,1.813,2.828,1.813,4.86c0,2.032-0.631,3.625-1.895,4.778c-1.262,1.153-2.855,1.729-4.777,1.729h-10.625V45.501z"/>
</g>
<g>
	<path fill="#DF5B49" d="M124.022,84.995h4.225v38.385h15.149v3.26h-19.374V84.995z"/>
	<path fill="#DF5B49" d="M172.606,93.686h4.225v32.954h-4.225v-5.371c-2.213,3.982-5.854,5.975-10.924,5.975
		c-3.662,0-6.72-1.197-9.174-3.592c-2.455-2.393-3.682-5.844-3.682-10.351V93.686h4.165v18.831c0,3.621,0.875,6.377,2.625,8.268
		c1.75,1.893,4.144,2.838,7.182,2.838c3.038,0,5.432-0.945,7.183-2.838c1.75-1.891,2.625-4.646,2.625-8.268V93.686z M160.566,88.345
		c-0.584,0.583-1.278,0.875-2.083,0.875c-0.805,0-1.499-0.292-2.082-0.875c-0.583-0.584-0.875-1.277-0.875-2.083
		c0-0.804,0.292-1.499,0.875-2.082c0.583-0.583,1.277-0.875,2.082-0.875c0.805,0,1.499,0.292,2.083,0.875
		c0.583,0.583,0.875,1.278,0.875,2.082C161.441,87.067,161.148,87.761,160.566,88.345z M169.619,88.345
		c-0.584,0.583-1.278,0.875-2.083,0.875c-0.805,0-1.499-0.292-2.082-0.875c-0.583-0.584-0.875-1.277-0.875-2.083
		c0-0.804,0.292-1.499,0.875-2.082c0.583-0.583,1.277-0.875,2.082-0.875c0.805,0,1.499,0.292,2.083,0.875
		c0.583,0.583,0.875,1.278,0.875,2.082C170.494,87.067,170.202,87.761,169.619,88.345z"/>
	<path fill="#DF5B49" d="M202.965,93.082c4.626,0,8.439,1.539,11.438,4.617c2.997,3.078,4.496,7.143,4.496,12.191
		c0,5.05-1.509,9.204-4.526,12.464c-3.018,3.258-6.82,4.889-11.407,4.889c-2.978,0-5.593-0.734-7.846-2.203
		c-2.254-1.469-3.923-3.35-5.009-5.644v7.243h-4.225V81.977h4.225v18.892c1.086-2.294,2.755-4.165,5.009-5.613
		C197.372,93.806,199.987,93.082,202.965,93.082z M202.301,123.622c3.38,0,6.267-1.277,8.661-3.833
		c2.394-2.555,3.591-5.854,3.591-9.898s-1.188-7.252-3.561-9.626c-2.375-2.374-5.261-3.562-8.661-3.562
		c-3.4,0-6.287,1.237-8.661,3.712c-2.375,2.475-3.561,5.725-3.561,9.747c0,4.024,1.187,7.272,3.561,9.747
		C196.044,122.384,198.921,123.622,202.301,123.622z"/>
	<path fill="#DF5B49" d="M239.598,127.243c-4.707,0-8.529-1.57-11.466-4.709c-2.938-3.138-4.406-7.271-4.406-12.402
		c0-5.13,1.499-9.254,4.496-12.373c2.998-3.117,6.881-4.677,11.648-4.677c4.77,0,8.561,1.47,11.377,4.405
		c2.816,2.938,4.227,6.579,4.227,10.925c0,1.167-0.082,2.254-0.242,3.259h-27.16c0.16,3.783,1.307,6.76,3.441,8.933
		c2.131,2.173,4.828,3.259,8.085,3.259c2.535,0,4.697-0.582,6.488-1.75c1.791-1.166,3.027-2.695,3.713-4.587h4.525
		c-1.086,2.817-2.857,5.142-5.311,6.972C246.559,126.327,243.42,127.243,239.598,127.243z M251.127,108.352
		c0-3.621-1.098-6.508-3.289-8.661c-2.195-2.152-4.91-3.229-8.148-3.229c-3.24,0-5.935,1.057-8.087,3.168
		c-2.152,2.113-3.33,5.021-3.531,8.722H251.127z"/>
	<path fill="#DF5B49" d="M264.647,122.534c-2.938-3.138-4.406-7.262-4.406-12.372c0-5.109,1.469-9.233,4.406-12.372
		c2.936-3.139,6.76-4.708,11.467-4.708c7.725,0,12.635,3.461,14.727,10.381h-4.527c-0.684-2.212-1.9-3.933-3.65-5.16
		s-3.934-1.841-6.549-1.841c-3.42,0-6.197,1.177-8.328,3.531c-2.135,2.354-3.199,5.732-3.199,10.139s1.064,7.797,3.199,10.17
		c2.131,2.375,4.908,3.561,8.328,3.561c2.615,0,4.799-0.613,6.549-1.84s2.967-2.947,3.65-5.16h4.527
		c-1.047,3.138-2.797,5.652-5.252,7.543c-2.453,1.893-5.611,2.838-9.475,2.838C271.407,127.243,267.583,125.673,264.647,122.534z"/>
	<path fill="#DF5B49" d="M302.79,126.64h-4.225V81.977h4.225v26.436l13.279-14.727h6.096l-15.994,16.296l15.994,16.658h-5.795
		l-13.58-14.787V126.64z"/>
</g>
<g>
</g>
<g>
</g>
<g>
</g>
<g>
</g>
<g>
</g>
<g>
</g>
</svg>
