G04 EAGLE Gerber RS-274X export*
G75*
%MOMM*%
%FSLAX34Y34*%
%LPD*%
%INTop Copper*%
%IPPOS*%
%AMOC8*
5,1,8,0,0,1.08239X$1,22.5*%
G01*
%ADD10P,1.649562X8X22.500000*%
%ADD11C,1.320800*%
%ADD12C,1.524000*%
%ADD13C,0.304800*%
%ADD14C,0.756400*%
D10*
X22860Y22860D03*
D11*
X284200Y82171D02*
X284200Y95379D01*
X258800Y95379D02*
X258800Y82171D01*
X233400Y82171D02*
X233400Y95379D01*
X208000Y95379D02*
X208000Y82171D01*
X182600Y82171D02*
X182600Y95379D01*
X157200Y95379D02*
X157200Y82171D01*
X131800Y82171D02*
X131800Y95379D01*
X106400Y95379D02*
X106400Y82171D01*
D10*
X335200Y22860D03*
X58420Y22860D03*
D12*
X327580Y458400D02*
X342820Y458400D01*
X342820Y433000D02*
X327580Y433000D01*
X327580Y407600D02*
X342820Y407600D01*
X342820Y382200D02*
X327580Y382200D01*
X327580Y356800D02*
X342820Y356800D01*
X342820Y331400D02*
X327580Y331400D01*
X327580Y306000D02*
X342820Y306000D01*
X342820Y280600D02*
X327580Y280600D01*
X327580Y255200D02*
X342820Y255200D01*
X342820Y229800D02*
X327580Y229800D01*
X327580Y204400D02*
X342820Y204400D01*
X342820Y179000D02*
X327580Y179000D01*
X327580Y153600D02*
X342820Y153600D01*
X342820Y128200D02*
X327580Y128200D01*
X327580Y102800D02*
X342820Y102800D01*
X63860Y457400D02*
X48620Y457400D01*
X48620Y432000D02*
X63860Y432000D01*
X63860Y406600D02*
X48620Y406600D01*
X48620Y381200D02*
X63860Y381200D01*
X63860Y355800D02*
X48620Y355800D01*
X48620Y330400D02*
X63860Y330400D01*
X63860Y305000D02*
X48620Y305000D01*
X48620Y279600D02*
X63860Y279600D01*
X63860Y254200D02*
X48620Y254200D01*
X48620Y228800D02*
X63860Y228800D01*
X63860Y203400D02*
X48620Y203400D01*
X48620Y178000D02*
X63860Y178000D01*
X63860Y152600D02*
X48620Y152600D01*
X48620Y127200D02*
X63860Y127200D01*
X63860Y101800D02*
X48620Y101800D01*
X106100Y-43480D02*
X106100Y-58720D01*
X131500Y-58720D02*
X131500Y-43480D01*
X156900Y-43480D02*
X156900Y-58720D01*
X182300Y-58720D02*
X182300Y-43480D01*
X207700Y-43480D02*
X207700Y-58720D01*
X233100Y-58720D02*
X233100Y-43480D01*
X258500Y-43480D02*
X258500Y-58720D01*
X283900Y-58720D02*
X283900Y-43480D01*
D13*
X58420Y22860D02*
X58025Y24525D01*
D14*
X58025Y24525D03*
D13*
X334813Y280988D02*
X335200Y280600D01*
X335200Y128200D02*
X321063Y128200D01*
M02*
